<svg width="1440" height="165" viewBox="0 0 1440 165" fill="none" xmlns="http://www.w3.org/2000/svg">
<g clip-path="url(#clip0_3_41)">
<rect width="1464" height="165" transform="translate(-2)" fill="#FCF0EC"/>
<path opacity="0.13" d="M38.4884 106.41C41.7569 101.537 40.5725 95.0145 35.3153 89.6345C32.9699 92.7795 29.9321 95.0465 26.2701 96.5165C21.7957 98.3115 17.7311 97.3735 13.9603 94.8005C11.444 93.0835 11.323 90.3845 13.4082 87.6985C19.2723 80.1455 23.6745 79.2545 32.2867 83.8515C32.8997 84.1795 33.4325 84.8315 34.5823 84.4185C35.232 81.0615 35.3814 77.6495 33.827 74.1455C31.0535 74.6295 28.341 75.1685 25.6174 74.6845C23.6145 74.3285 21.3911 73.8065 21.327 71.2995C21.266 68.9015 22.9923 67.5915 25.2219 66.9885C29.0496 65.9525 32.3467 66.7625 35.2249 70.4095C36.5689 67.4175 40.3631 65.8765 38.0746 61.9045C37.6161 61.1085 41.5109 55.8775 42.7492 55.1945C44.3047 54.3375 45.3722 55.2515 46.455 56.0835C47.1453 56.6145 47.7909 57.3765 47.3252 58.2305C46.1835 60.3265 45.4149 63.0355 43.3155 64.0905C39.7653 65.8755 39.1868 69.7005 36.6472 72.0965C35.8572 72.8425 36.5953 73.9085 36.8261 74.7705C37.7086 78.0645 37.8062 81.3955 37.005 84.6635C36.573 86.4255 37.0193 87.5585 38.1519 88.8585C42.9139 94.3185 44.142 100.416 41.0931 107.107C40.7423 107.877 40.723 108.379 41.1785 109.077C43.3582 112.418 42.8875 115.881 41.2557 119.197C37.2094 127.418 30.2269 132.479 21.9136 135.93C18.8514 137.201 15.5818 136.697 12.5715 135.664C10.1468 134.831 8.57295 132.946 8.60243 130.189C8.6431 126.31 9.1067 122.58 11.0872 119.044C13.7661 114.262 17.4352 110.41 21.9655 107.454C27.0875 104.112 32.6547 103.947 38.4884 106.41ZM36.7539 122.289C32.1281 117.017 28.8717 115.008 23.5424 113.773C20.4192 113.049 17.7941 113.375 15.8492 116.294C13.5831 119.695 11.4176 123.008 11.2376 127.323C11.0272 132.381 12.1852 134.148 17.3061 133.96C25.8817 133.643 31.1348 127.812 36.7539 122.289ZM33.1021 87.7385C26.635 81.8755 20.286 82.2925 15.3775 88.7635C13.8566 90.7685 14.0396 92.2875 16.3901 93.5805C22.0295 96.6825 29.7298 94.1075 33.1021 87.7385ZM29.8874 112.964C32.6822 115.158 35.3489 117.252 38.0268 119.354C41.1083 114.881 40.6284 110.941 36.9166 108.706C34.259 107.106 32.3192 108.242 29.8874 112.964ZM32.8062 71.7185C29.4482 68.2035 25.5177 68.1935 23.6949 71.6945C26.6706 72.7065 29.5122 73.1205 32.8062 71.7185ZM27.6405 112.333C28.6694 110.606 29.5488 109.13 30.6916 107.211C27.1647 107.53 24.4482 108.409 21.7957 110.749C23.9815 111.341 25.6824 111.802 27.6405 112.333Z" fill="#FA1239"/>
<path opacity="0.13" d="M1178.17 99.4105C1181.44 94.5375 1180.26 88.0145 1175 82.6345C1172.65 85.7795 1169.61 88.0465 1165.95 89.5165C1161.48 91.3115 1157.41 90.3735 1153.64 87.8005C1151.13 86.0835 1151.01 83.3845 1153.09 80.6985C1158.96 73.1455 1163.36 72.2545 1171.97 76.8515C1172.58 77.1795 1173.12 77.8315 1174.27 77.4185C1174.91 74.0615 1175.06 70.6495 1173.51 67.1455C1170.74 67.6295 1168.02 68.1685 1165.3 67.6845C1163.3 67.3285 1161.07 66.8065 1161.01 64.2995C1160.95 61.9015 1162.68 60.5915 1164.9 59.9885C1168.73 58.9525 1172.03 59.7625 1174.91 63.4095C1176.25 60.4175 1180.05 58.8765 1177.76 54.9045C1177.3 54.1085 1181.19 48.8775 1182.43 48.1945C1183.99 47.3375 1185.05 48.2515 1186.14 49.0835C1186.83 49.6145 1187.47 50.3765 1187.01 51.2305C1185.87 53.3265 1185.1 56.0355 1183 57.0905C1179.45 58.8755 1178.87 62.7005 1176.33 65.0965C1175.54 65.8425 1176.28 66.9085 1176.51 67.7705C1177.39 71.0645 1177.49 74.3955 1176.69 77.6635C1176.26 79.4255 1176.7 80.5585 1177.83 81.8585C1182.6 87.3185 1183.82 93.4155 1180.78 100.107C1180.43 100.877 1180.41 101.379 1180.86 102.077C1183.04 105.418 1182.57 108.881 1180.94 112.197C1176.89 120.418 1169.91 125.479 1161.6 128.93C1158.53 130.201 1155.26 129.697 1152.25 128.664C1149.83 127.831 1148.26 125.946 1148.29 123.189C1148.33 119.31 1148.79 115.58 1150.77 112.044C1153.45 107.262 1157.12 103.41 1161.65 100.454C1166.77 97.1125 1172.34 96.9475 1178.17 99.4105ZM1176.44 115.289C1171.81 110.017 1168.55 108.008 1163.23 106.773C1160.1 106.049 1157.48 106.375 1155.53 109.294C1153.27 112.695 1151.1 116.008 1150.92 120.323C1150.71 125.381 1151.87 127.148 1156.99 126.96C1165.56 126.643 1170.82 120.812 1176.44 115.289ZM1172.78 80.7385C1166.32 74.8755 1159.97 75.2925 1155.06 81.7635C1153.54 83.7685 1153.72 85.2875 1156.07 86.5805C1161.71 89.6825 1169.41 87.1075 1172.78 80.7385ZM1169.57 105.964C1172.36 108.158 1175.03 110.252 1177.71 112.354C1180.79 107.881 1180.31 103.941 1176.6 101.706C1173.94 100.106 1172 101.242 1169.57 105.964ZM1172.49 64.7185C1169.13 61.2035 1165.2 61.1935 1163.38 64.6945C1166.35 65.7065 1169.19 66.1205 1172.49 64.7185ZM1167.32 105.333C1168.35 103.606 1169.23 102.13 1170.37 100.211C1166.85 100.53 1164.13 101.409 1161.48 103.749C1163.66 104.341 1165.37 104.802 1167.32 105.333Z" fill="#FA1239"/>
<path opacity="0.13" d="M429.916 78.9385C433.169 73.9265 431.957 67.4005 426.731 62.1675C424.354 65.2765 421.331 67.5675 417.657 69.0285C413.177 70.8095 409.114 69.8615 405.351 67.2805C402.85 65.5645 402.748 62.8555 404.844 60.1725C410.734 52.6355 415.212 51.7355 423.729 56.3735C424.275 56.6715 424.838 56.9445 425.812 57.4435C426.752 53.6465 426.708 50.2025 425.31 46.6155C422.548 47.1405 419.936 47.6355 417.312 47.2205C415.205 46.8875 412.804 46.4385 412.753 43.7625C412.703 41.2145 414.627 39.9565 416.98 39.3915C420.72 38.4935 423.892 39.4055 426.654 42.9145C427.989 39.9065 431.792 38.3375 429.482 34.3685C429.023 33.5805 432.975 28.3305 434.199 27.6745C435.764 26.8345 436.82 27.7755 437.898 28.6075C438.591 29.1425 439.207 29.9145 438.732 30.7655C437.57 32.8495 436.82 35.5745 434.705 36.6135C431.119 38.3755 430.597 42.2395 428.048 44.6315C427.274 45.3585 428.009 46.4475 428.252 47.3065C429.123 50.3885 429.212 53.5345 428.543 56.5895C428.096 58.6345 428.367 60.0285 429.776 61.6445C434.472 67.0245 435.48 73.0925 432.489 79.6375C432.129 80.4255 432.181 80.9225 432.617 81.6075C434.824 85.0805 434.248 88.5945 432.521 92.0105C428.489 99.9815 421.643 104.888 413.598 108.347C410.442 109.704 407.07 109.23 403.955 108.15C401.531 107.31 399.981 105.405 400.017 102.651C400.067 98.7715 400.533 95.0425 402.522 91.5115C405.211 86.7375 408.875 82.8765 413.416 79.9355C418.537 76.6195 424.105 76.4245 429.916 78.9385ZM428.244 94.7585C424.403 90.4935 420.516 87.5395 415.322 86.3315C411.726 85.4955 408.969 86.0615 406.909 89.2445C404.746 92.5865 402.769 95.8865 402.624 100.084C402.463 104.751 403.584 106.526 408.358 106.461C417.128 106.34 422.416 100.374 428.244 94.7585ZM415.747 56.0525C412.205 55.9985 406.693 59.9745 405.935 62.7425C405.541 64.1765 406.173 65.0815 407.384 65.8525C412.292 68.9785 421.398 66.5805 424.051 61.4575C424.508 60.5745 424.563 59.8975 423.684 59.3085C421.116 57.5895 418.391 56.2605 415.747 56.0525ZM429.479 91.9355C431.581 89.1875 432.098 86.3595 430.789 83.5885C429.965 81.8425 428.147 80.1935 426.045 80.5515C423.501 80.9845 422.247 83.2175 421.312 85.4485C424.014 87.5945 426.614 89.6595 429.479 91.9355ZM414.985 43.8795C417.976 45.4645 420.867 45.4965 423.977 44.3525C421.573 40.8385 417.649 40.5815 414.985 43.8795ZM421.966 80.0605C418.287 79.9065 415.75 80.9305 413.635 83.3775C415.501 83.8745 417.287 84.3505 419.035 84.8155C420.053 83.1635 420.914 81.7655 421.966 80.0605Z" fill="#FA1239"/>
<path opacity="0.13" d="M247.599 -41.7265C248.68 -45.2025 252.677 -46.7595 250.302 -50.6135C249.825 -51.3875 253.754 -56.6445 254.992 -57.3165C256.549 -58.1625 257.615 -57.2415 258.695 -56.4085C259.386 -55.8755 260.022 -55.1115 259.551 -54.2575C258.4 -52.1665 257.638 -49.4595 255.534 -48.3995C251.989 -46.6125 251.404 -42.7935 248.872 -40.3905C248.092 -39.6505 248.828 -38.5785 249.059 -37.7145C249.944 -34.4205 250.035 -31.0895 249.229 -27.8225C248.793 -26.0545 249.266 -24.9285 250.392 -23.6315C255.143 -18.1655 256.376 -12.0695 253.313 -5.38149C252.957 -4.60449 252.979 -4.1065 253.416 -3.4095C255.673 0.180496 255.022 3.7645 253.2 7.2715C249.136 15.0915 242.364 19.9165 234.431 23.3405C231.272 24.7035 227.904 24.2265 224.786 23.1575C222.362 22.3265 220.788 20.4285 220.833 17.6725C220.894 13.9065 221.293 10.2715 223.176 6.80751C225.797 1.98751 229.457 -1.8685 233.945 -4.8825C239.123 -8.3605 244.776 -8.5965 250.565 -6.1465C254.111 -10.1735 252.926 -17.3945 247.542 -22.8515C245.187 -19.7165 242.149 -17.4475 238.485 -15.9795C234.009 -14.1855 229.945 -15.1345 226.177 -17.7095C223.672 -19.4215 223.557 -22.1325 225.644 -24.8145C231.511 -32.3555 235.999 -33.2625 244.524 -28.6345C245.072 -28.3375 245.632 -28.0625 246.648 -27.5395C247.545 -31.3465 247.526 -34.7855 246.133 -38.3755C243.27 -37.8605 240.554 -37.3315 237.831 -37.8205C235.834 -38.1785 233.603 -38.7015 233.557 -41.2185C233.515 -43.6115 235.232 -44.9365 237.471 -45.5135C241.28 -46.4945 244.635 -45.8635 247.599 -41.7265ZM248.876 9.70052C243.856 3.82752 238.487 1.02051 232.704 0.980511C231.61 0.973511 230.696 1.05951 229.846 1.90251C227.115 4.61151 225.021 7.75751 223.96 11.3725C221.688 19.1105 225.312 23.4005 232.586 21.2625C239.176 19.3235 244.401 15.0745 248.876 9.70052ZM245.216 -24.7695C239.271 -30.6595 232.183 -30.1775 227.478 -23.5735C226.103 -21.6445 226.352 -20.1975 228.522 -18.9695C234.214 -15.7475 242.512 -18.5925 245.216 -24.7695ZM242.085 0.424511C244.856 2.61251 247.517 4.71351 250.306 6.91451C252.396 4.23251 252.886 1.41052 251.631 -1.36348C250.833 -3.12948 249.006 -4.75651 246.913 -4.45351C244.333 -4.07851 243.133 -1.78949 242.085 0.424511ZM244.67 -40.5395C242.844 -44.1605 238.26 -44.5025 235.859 -41.0415C238.776 -39.5755 241.653 -39.5455 244.67 -40.5395ZM234.013 -1.7405C236.291 -1.1325 238.078 -0.654495 239.874 -0.175495C240.9 -1.8945 241.782 -3.37151 242.911 -5.26351C239.47 -5.02851 236.821 -4.1195 234.013 -1.7405Z" fill="#FA1239"/>
<path opacity="0.13" d="M1387.28 -48.7265C1388.36 -52.2025 1392.36 -53.7595 1389.99 -57.6135C1389.51 -58.3875 1393.44 -63.6445 1394.67 -64.3165C1396.23 -65.1625 1397.3 -64.2415 1398.38 -63.4085C1399.07 -62.8755 1399.71 -62.1115 1399.23 -61.2575C1398.08 -59.1665 1397.32 -56.4595 1395.22 -55.3995C1391.67 -53.6125 1391.09 -49.7935 1388.56 -47.3905C1387.78 -46.6505 1388.51 -45.5785 1388.74 -44.7145C1389.63 -41.4205 1389.72 -38.0895 1388.91 -34.8225C1388.48 -33.0545 1388.95 -31.9285 1390.08 -30.6315C1394.83 -25.1655 1396.06 -19.0695 1393 -12.3815C1392.64 -11.6045 1392.66 -11.1065 1393.1 -10.4095C1395.36 -6.8195 1394.71 -3.2355 1392.88 0.2715C1388.82 8.0915 1382.05 12.9165 1374.11 16.3405C1370.96 17.7035 1367.59 17.2265 1364.47 16.1575C1362.04 15.3265 1360.47 13.4285 1360.52 10.6725C1360.58 6.9065 1360.98 3.27151 1362.86 -0.19249C1365.48 -5.01249 1369.14 -8.8685 1373.63 -11.8825C1378.81 -15.3605 1384.46 -15.5965 1390.25 -13.1465C1393.79 -17.1735 1392.61 -24.3945 1387.23 -29.8515C1384.87 -26.7165 1381.83 -24.4475 1378.17 -22.9795C1373.69 -21.1855 1369.63 -22.1345 1365.86 -24.7095C1363.36 -26.4215 1363.24 -29.1325 1365.33 -31.8145C1371.19 -39.3555 1375.68 -40.2625 1384.21 -35.6345C1384.76 -35.3375 1385.32 -35.0625 1386.33 -34.5395C1387.23 -38.3465 1387.21 -41.7855 1385.82 -45.3755C1382.95 -44.8605 1380.24 -44.3315 1377.51 -44.8205C1375.52 -45.1785 1373.29 -45.7015 1373.24 -48.2185C1373.2 -50.6115 1374.91 -51.9365 1377.15 -52.5135C1380.96 -53.4945 1384.32 -52.8635 1387.28 -48.7265ZM1388.56 2.70052C1383.54 -3.17248 1378.17 -5.97949 1372.39 -6.01949C1371.29 -6.02649 1370.38 -5.94049 1369.53 -5.09749C1366.8 -2.38849 1364.7 0.757513 1363.64 4.37251C1361.37 12.1105 1365 16.4005 1372.27 14.2625C1378.86 12.3235 1384.08 8.07452 1388.56 2.70052ZM1384.9 -31.7695C1378.95 -37.6595 1371.87 -37.1775 1367.16 -30.5735C1365.79 -28.6445 1366.04 -27.1975 1368.2 -25.9695C1373.9 -22.7475 1382.2 -25.5925 1384.9 -31.7695ZM1381.77 -6.57549C1384.54 -4.38749 1387.2 -2.28649 1389.99 -0.085495C1392.08 -2.76749 1392.57 -5.58948 1391.31 -8.36348C1390.52 -10.1295 1388.69 -11.7565 1386.6 -11.4535C1384.02 -11.0785 1382.82 -8.78949 1381.77 -6.57549ZM1384.35 -47.5395C1382.53 -51.1605 1377.94 -51.5025 1375.54 -48.0415C1378.46 -46.5755 1381.34 -46.5455 1384.35 -47.5395ZM1373.7 -8.7405C1375.97 -8.1325 1377.76 -7.6545 1379.56 -7.1755C1380.58 -8.8945 1381.47 -10.3715 1382.59 -12.2635C1379.15 -12.0285 1376.5 -11.1195 1373.7 -8.7405Z" fill="#FA1239"/>
<path opacity="0.13" d="M-38.8877 27.4975C-41.1986 25.7885 -43.787 25.1065 -44.6349 21.5685C-45.4371 18.2235 -43.9466 16.3685 -42.3342 14.5265C-41.0705 13.0825 -39.4143 10.7525 -36.6226 12.6165C-36.3318 12.8105 -35.2236 12.6075 -35.0701 11.8725C-34.4876 9.0725 -32.5681 9.9355 -30.8692 10.3595C-27.4959 11.2015 -24.1409 12.1185 -20.726 13.0185C-19.5202 12.3555 -19.8181 11.0365 -19.5344 9.99451C-18.1446 4.90651 -15.8765 0.26251 -12.5184 -3.85049C-9.45926 -7.59749 -5.43326 -9.00249 -0.687455 -8.28149C2.20699 -7.84249 4.37453 -6.45049 5.16346 -3.35949C6.69558 2.65051 5.42271 8.38948 3.61813 14.0765C3.05693 15.8455 2.24562 17.5325 2.16022 19.4935C4.87269 20.7755 7.73563 21.4785 10.5701 22.2725C12.2079 22.7315 13.4432 23.3945 13.0386 25.5355C11.1303 35.6505 9.15184 45.7575 7.52213 55.9175C6.02559 65.2485 0.281429 67.9345 -8.90822 66.9495C-17.5519 66.0225 -25.9994 64.3325 -34.4083 62.2345C-43.7484 59.9045 -46.7425 55.4365 -44.3523 46.2795C-42.7236 40.0425 -40.7604 33.8915 -38.8877 27.4975ZM-39.1368 57.8465C-38.359 56.8295 -39.6939 55.4325 -38.3428 54.6955C-37.501 54.8115 -37.2814 55.4225 -37.1187 56.0145C-36.342 58.8335 -34.4449 60.0055 -31.5646 60.7655C-23.6631 62.8505 -15.6365 63.9755 -7.54487 64.9655C-0.618324 65.8125 3.70353 63.4185 5.01909 56.8265C7.03514 46.7315 8.73196 36.5755 10.6047 26.4525C10.8598 25.0705 10.5223 24.4215 9.05221 24.0015C-4.34339 20.1705 -17.7146 16.2545 -31.098 12.3805C-31.6226 12.2285 -32.3231 11.7995 -32.6748 12.9295C-31.8727 14.2795 -28.9244 13.1705 -28.9274 15.6415C-30.3609 16.5025 -31.6714 15.3595 -33.297 15.6725C-34.9623 27.4855 -37.7866 39.1495 -39.5384 51.0455C-41.4222 47.0595 -39.7031 43.1315 -39.6461 38.8315C-44.0656 49.6325 -44.2232 56.0485 -39.1368 57.8465ZM-0.45057 19.2205C1.96401 12.7735 4.07563 6.68449 3.66286 0.0994921C3.50629 -2.39951 3.16672 -5.1315 0.123842 -5.8865C-3.37247 -6.7535 -6.92267 -6.68752 -9.64225 -3.90152C-14.4613 1.03448 -17.067 7.03151 -18.1995 13.9855C-12.2205 15.7485 -6.48347 17.4405 -0.45057 19.2205ZM-43.2492 19.4035C-43.1292 20.4985 -42.1664 21.2315 -41.957 22.4345C-41.7364 23.7015 -40.1697 24.5585 -38.848 24.7875C-37.3352 25.0505 -37.4725 23.4485 -37.2173 22.5825C-36.5534 20.3295 -35.7523 18.0815 -35.7421 16.0695C-40.1168 13.4425 -41.5127 16.7125 -43.2492 19.4035Z" fill="#FA1239"/>
<path opacity="0.13" d="M1100.8 20.4975C1098.48 18.7885 1095.9 18.1065 1095.05 14.5685C1094.25 11.2235 1095.74 9.36849 1097.35 7.52649C1098.61 6.08249 1100.27 3.75249 1103.06 5.61649C1103.35 5.81049 1104.46 5.6075 1104.61 4.8725C1105.2 2.0725 1107.12 2.9355 1108.81 3.3595C1112.19 4.2015 1115.54 5.1185 1118.96 6.0185C1120.16 5.3555 1119.87 4.03651 1120.15 2.99451C1121.54 -2.09349 1123.81 -6.73749 1127.16 -10.8505C1130.22 -14.5975 1134.25 -16.0025 1139 -15.2815C1141.89 -14.8425 1144.06 -13.4505 1144.85 -10.3595C1146.38 -4.34949 1145.11 1.38948 1143.3 7.07648C1142.74 8.84548 1141.93 10.5325 1141.84 12.4935C1144.56 13.7755 1147.42 14.4785 1150.25 15.2725C1151.89 15.7315 1153.13 16.3945 1152.72 18.5355C1150.81 28.6505 1148.83 38.7575 1147.21 48.9175C1145.71 58.2485 1139.96 60.9345 1130.77 59.9495C1122.13 59.0225 1113.68 57.3325 1105.27 55.2345C1095.93 52.9045 1092.94 48.4365 1095.33 39.2795C1096.96 33.0425 1098.92 26.8915 1100.8 20.4975ZM1100.55 50.8465C1101.32 49.8295 1099.99 48.4325 1101.34 47.6955C1102.18 47.8115 1102.4 48.4225 1102.56 49.0145C1103.34 51.8335 1105.24 53.0055 1108.12 53.7655C1116.02 55.8505 1124.05 56.9755 1132.14 57.9655C1139.06 58.8125 1143.39 56.4185 1144.7 49.8265C1146.72 39.7315 1148.42 29.5755 1150.29 19.4525C1150.54 18.0705 1150.21 17.4215 1148.74 17.0015C1135.34 13.1705 1121.97 9.2545 1108.59 5.3805C1108.06 5.2285 1107.36 4.79951 1107.01 5.92951C1107.81 7.27951 1110.76 6.17048 1110.76 8.64148C1109.32 9.50248 1108.01 8.35949 1106.39 8.67249C1104.72 20.4855 1101.9 32.1495 1100.14 44.0455C1098.26 40.0595 1099.98 36.1315 1100.04 31.8315C1095.62 42.6325 1095.46 49.0485 1100.55 50.8465ZM1139.23 12.2205C1141.65 5.77349 1143.76 -0.315508 1143.35 -6.90051C1143.19 -9.39951 1142.85 -12.1315 1139.81 -12.8865C1136.31 -13.7535 1132.76 -13.6875 1130.04 -10.9015C1125.22 -5.96552 1122.62 0.031508 1121.48 6.98551C1127.46 8.74851 1133.2 10.4405 1139.23 12.2205ZM1096.43 12.4035C1096.55 13.4985 1097.52 14.2315 1097.73 15.4345C1097.95 16.7015 1099.51 17.5585 1100.84 17.7875C1102.35 18.0505 1102.21 16.4485 1102.47 15.5825C1103.13 13.3295 1103.93 11.0815 1103.94 9.06949C1099.57 6.44249 1098.17 9.71251 1096.43 12.4035Z" fill="#FA1239"/>
<path opacity="0.13" d="M393.525 -7.78053C396.561 -6.87153 399.393 -6.04853 402.207 -5.17253C403.719 -4.70153 404.839 -4.01852 404.471 -2.05452C402.517 8.36948 400.608 18.8025 398.754 29.2435C397.253 37.6915 391.977 40.2775 383.546 39.5535C374.472 38.7745 365.6 36.9425 356.787 34.6975C347.806 32.4095 344.746 27.9575 346.978 19.1715C348.612 12.7385 350.645 6.40247 352.549 -0.146526C349.958 -1.51753 347.616 -2.69452 346.71 -6.12852C345.857 -9.36252 347.515 -11.1585 349.021 -12.9155C350.234 -14.3305 351.867 -16.8045 354.702 -14.8885C355.014 -14.6785 356.142 -14.8635 356.295 -15.5545C356.954 -18.5325 359.002 -17.5245 360.768 -17.0905C364.129 -16.2655 367.463 -15.3365 371.208 -14.3445C371.983 -19.2265 373.796 -23.6225 376.288 -27.7215C379.173 -32.4655 382.71 -36.2165 389.061 -35.8975C393.999 -35.6495 396.448 -33.6325 397.05 -28.8245C397.724 -23.4455 396.713 -18.2715 394.959 -13.2165C394.38 -11.5465 393.716 -9.91953 393.525 -7.78053ZM358.06 -11.8585C356.566 -0.0395298 353.551 11.6035 351.89 23.5385C350.05 19.5685 351.637 15.6455 351.821 11.3515C347.544 21.3055 346.952 28.9505 352.312 30.2445C353.099 29.3695 351.754 27.9705 352.997 27.2165C353.891 27.2255 354.108 27.8675 354.27 28.4435C355.055 31.2355 356.873 32.4475 359.775 33.2545C368.07 35.5615 376.556 36.5755 385.043 37.6685C390.705 38.3985 395.052 35.4945 396.303 30.0095C397.205 26.0615 397.781 22.0415 398.51 18.0555C399.776 11.1225 401.048 4.19048 402.344 -2.88252C387.665 -7.14652 373.338 -11.3075 358.419 -15.6405C359.397 -13.0765 362.564 -14.4265 362.488 -11.8835C361.115 -10.9605 359.804 -12.0925 358.06 -11.8585ZM390.975 -8.28053C393.341 -14.6755 395.437 -20.6605 395.095 -27.1415C394.963 -29.6555 394.721 -32.4525 391.788 -33.2965C388.355 -34.2855 384.763 -34.3125 381.979 -31.5665C376.972 -26.6295 374.381 -20.5285 373.212 -13.5145C379.239 -11.7385 384.979 -10.0475 390.975 -8.28053ZM348.185 -8.13951C348.159 -7.06651 349.387 -6.55252 349.391 -5.38752C349.398 -3.46352 351.326 -3.07252 352.553 -2.76152C354.145 -2.35752 353.987 -4.2405 354.274 -5.1865C354.93 -7.3405 355.678 -9.50553 355.683 -11.4535C351.378 -13.9975 349.894 -10.8745 348.185 -8.13951Z" fill="#FA1239"/>
<path opacity="0.13" d="M141.053 102.087C136.958 101.351 135.471 98.4855 134.79 95.2215C134.314 92.9355 135.857 90.9695 137.382 89.5775C138.817 88.2665 140.256 85.6815 143.099 87.6145C143.409 87.8255 144.542 87.6425 144.694 86.9565C145.351 83.9925 147.386 84.9645 149.163 85.4035C152.523 86.2345 155.859 87.1605 159.665 88.1695C160.34 83.2645 162.209 78.8915 164.691 74.7905C167.565 70.0405 171.104 66.2875 177.455 66.6015C182.4 66.8465 184.85 68.8575 185.456 73.6625C186.134 79.0415 185.072 84.2005 183.396 89.2795C182.846 90.9455 182.303 92.6125 181.664 94.5635C184.389 95.4215 186.846 96.3605 189.386 96.9515C192.28 97.6245 193.238 98.7435 192.565 101.957C190.54 111.623 188.883 121.369 187.299 131.118C185.799 140.358 180.059 142.86 171.337 141.993C162.585 141.124 154.029 139.404 145.517 137.258C136.014 134.862 133.056 130.432 135.525 121.073C137.164 114.854 139.112 108.712 141.053 102.087ZM141.344 129.672C142.46 129.853 142.576 130.626 142.795 131.3C143.606 133.8 145.269 134.927 147.937 135.682C156.324 138.057 164.918 139.086 173.512 140.176C179.183 140.895 183.488 137.976 184.72 132.45C185.806 127.582 186.591 122.649 187.479 117.739C188.566 111.734 189.623 105.724 190.713 99.6035C176.04 95.3455 161.736 91.1945 147.433 87.0445C147.951 89.2805 150.9 88.1715 150.898 90.6455C149.467 91.5045 148.157 90.3715 146.526 90.6735C144.86 102.486 142.042 114.152 140.425 126.074C139.777 125.678 139.48 125.345 139.413 124.972C138.761 121.337 140.055 117.804 140.192 113.806C136.048 123.747 135.284 131.455 140.776 132.739C141.362 131.823 140.378 130.669 141.344 129.672ZM179.383 94.2205C181.743 87.8255 183.845 81.8395 183.501 75.3575C183.368 72.8455 183.132 70.0465 180.196 69.2025C176.762 68.2155 173.17 68.1865 170.386 70.9335C165.381 75.8725 162.783 81.9695 161.618 88.9865C167.645 90.7625 173.387 92.4535 179.383 94.2205ZM136.559 94.4825C136.818 95.5235 137.611 96.3325 137.872 97.5025C138.139 98.7035 139.656 99.6655 141.047 99.7995C142.529 99.9425 142.362 98.3795 142.631 97.5085C143.3 95.3455 143.761 93.1195 144.263 91.0895C140.049 88.5945 138.419 91.5065 136.559 94.4825Z" fill="#FA1239"/>
<path opacity="0.13" d="M1280.74 95.0875C1276.64 94.3515 1275.15 91.4855 1274.47 88.2215C1274 85.9355 1275.54 83.9695 1277.07 82.5775C1278.5 81.2665 1279.94 78.6815 1282.78 80.6145C1283.09 80.8255 1284.23 80.6425 1284.38 79.9565C1285.03 76.9925 1287.07 77.9645 1288.85 78.4035C1292.21 79.2345 1295.54 80.1605 1299.35 81.1695C1300.02 76.2645 1301.89 71.8915 1304.37 67.7905C1307.25 63.0405 1310.79 59.2875 1317.14 59.6015C1322.08 59.8465 1324.53 61.8575 1325.14 66.6625C1325.82 72.0415 1324.75 77.2005 1323.08 82.2795C1322.53 83.9455 1321.99 85.6125 1321.35 87.5635C1324.07 88.4215 1326.53 89.3605 1329.07 89.9515C1331.96 90.6245 1332.92 91.7435 1332.25 94.9575C1330.22 104.623 1328.57 114.369 1326.98 124.118C1325.48 133.358 1319.74 135.86 1311.02 134.993C1302.27 134.124 1293.71 132.404 1285.2 130.258C1275.7 127.862 1272.74 123.432 1275.21 114.073C1276.85 107.854 1278.8 101.712 1280.74 95.0875ZM1281.03 122.672C1282.14 122.853 1282.26 123.626 1282.48 124.3C1283.29 126.8 1284.95 127.927 1287.62 128.682C1296.01 131.057 1304.6 132.086 1313.2 133.176C1318.87 133.895 1323.17 130.976 1324.4 125.45C1325.49 120.582 1326.27 115.649 1327.16 110.739C1328.25 104.734 1329.31 98.7245 1330.4 92.6035C1315.72 88.3455 1301.42 84.1945 1287.12 80.0445C1287.63 82.2805 1290.58 81.1715 1290.58 83.6455C1289.15 84.5045 1287.84 83.3715 1286.21 83.6735C1284.54 95.4865 1281.73 107.152 1280.11 119.074C1279.46 118.678 1279.16 118.345 1279.1 117.972C1278.44 114.337 1279.74 110.804 1279.88 106.806C1275.73 116.747 1274.97 124.455 1280.46 125.739C1281.05 124.823 1280.06 123.669 1281.03 122.672ZM1319.07 87.2205C1321.43 80.8255 1323.53 74.8395 1323.18 68.3575C1323.05 65.8455 1322.82 63.0465 1319.88 62.2025C1316.44 61.2155 1312.85 61.1865 1310.07 63.9335C1305.06 68.8725 1302.47 74.9695 1301.3 81.9865C1307.33 83.7625 1313.07 85.4535 1319.07 87.2205ZM1276.24 87.4825C1276.5 88.5235 1277.29 89.3325 1277.56 90.5025C1277.82 91.7035 1279.34 92.6655 1280.73 92.7995C1282.21 92.9425 1282.04 91.3795 1282.31 90.5085C1282.98 88.3455 1283.44 86.1195 1283.95 84.0895C1279.73 81.5945 1278.1 84.5065 1276.24 87.4825Z" fill="#FA1239"/>
<path opacity="0.13" d="M1102.14 132.311C1102.35 133.76 1101.64 134.342 1100.23 134.585C1090.23 136.306 1080.24 138.115 1070.23 139.822C1067.39 140.306 1063.91 137.264 1063.29 133.863C1061.37 123.316 1059.49 112.76 1057.57 102.212C1057.18 100.067 1056.6 97.9545 1056.24 95.8055C1055.94 94.0425 1056.45 92.9555 1058.61 92.6075C1068.32 91.0395 1078 89.2795 1087.69 87.6205C1090.03 87.2205 1094.57 90.0755 1094.99 92.3545C1097.39 105.46 1099.71 118.58 1102.05 131.695C1102.09 131.9 1102.11 132.107 1102.14 132.311ZM1096.12 129.343C1093.74 115.915 1091.41 102.853 1089.03 89.4425C1078.57 91.2605 1068.36 93.0375 1057.96 94.8455C1060.42 108.375 1062.8 121.491 1065.18 134.602C1075.65 132.823 1085.62 131.128 1096.12 129.343ZM1091.31 91.3885C1091.31 91.9945 1091.25 92.4065 1091.32 92.7955C1093.48 104.652 1095.62 116.514 1097.87 128.354C1098.26 130.375 1097.74 131.193 1095.67 131.504C1090.87 132.228 1086.1 133.134 1081.31 133.96C1076.69 134.759 1072.06 135.549 1067.29 136.368C1067.96 137.599 1068.72 138.017 1069.76 137.835C1079.82 136.061 1089.89 134.275 1099.93 132.497C1100.02 132.018 1100.17 131.708 1100.12 131.432C1097.88 118.742 1095.62 106.057 1093.38 93.3665C1093.2 92.3255 1092.75 91.6305 1091.31 91.3885Z" fill="#FA1239"/>
<path opacity="0.13" d="M353.893 111.687C354.091 113.079 353.557 113.81 352.087 114.064C341.979 115.81 331.886 117.646 321.771 119.355C319.115 119.804 315.62 116.671 315.038 113.481C313.112 102.934 311.24 92.3785 309.322 81.8305C308.913 79.5835 308.332 77.3655 307.964 75.1135C307.695 73.4655 308.239 72.4565 310.224 72.1325C320.036 70.5275 329.82 68.7605 339.619 67.0835C341.521 66.7575 346.274 69.5375 346.626 71.4325C349.115 84.8385 351.485 98.2665 353.893 111.687ZM316.898 114.116C327.375 112.324 337.502 110.593 347.861 108.821C345.458 95.3275 343.131 82.2685 340.757 68.9425C330.312 70.7555 320.157 72.5195 309.702 74.3345C312.126 87.7315 314.501 100.862 316.898 114.116ZM319.143 116.203C320.567 118.273 322.377 117.045 323.988 116.776C333.235 115.23 342.473 113.624 351.57 112.063C351.74 111.596 351.897 111.39 351.867 111.216C349.62 98.4245 347.355 85.6345 345.101 72.8435C344.906 71.7335 344.461 70.9574 343.049 71.0514C343.049 71.5174 342.987 71.9315 343.058 72.3215C345.198 84.0765 347.291 95.8395 349.555 107.571C350.004 109.902 349.416 110.685 347.066 111.059C339.144 112.319 331.253 113.771 323.361 115.213C321.972 115.466 320.357 114.899 319.143 116.203Z" fill="#FA1239"/>
<path opacity="0.13" d="M128.646 -10.1015C128.595 -11.7355 129.203 -12.5585 130.966 -12.8505C140.773 -14.4765 150.56 -16.2295 160.36 -17.9005C162.67 -18.2945 167.136 -15.3285 167.556 -13.0275C169.933 -0.0235109 172.228 12.9945 174.589 26.0005C174.931 27.8865 174.502 28.8175 172.35 29.1725C162.541 30.7885 152.766 32.5965 142.969 34.2875C140.054 34.7905 136.473 31.9035 135.862 28.5535C133.918 17.9045 132.04 7.24349 130.102 -3.40651C129.694 -5.65251 129.135 -7.87052 128.646 -10.1015ZM137.714 29.1135C148.142 27.3345 158.202 25.6185 168.662 23.8345C166.284 10.4495 163.951 -2.67953 161.573 -16.0605C151.087 -14.2385 140.933 -12.4735 130.513 -10.6625C132.943 2.75648 135.321 15.8915 137.714 29.1135ZM139.762 30.8925C141.525 33.4335 143.46 31.9765 145.14 31.7025C154.288 30.2125 163.416 28.6035 172.587 27.0285C172.617 26.3685 172.713 25.9545 172.644 25.5685C170.425 13.0865 168.187 0.608488 165.966 -11.8725C165.759 -13.0395 165.454 -14.0255 163.894 -13.9655C163.867 -13.5655 163.783 -13.2525 163.834 -12.9635C165.988 -1.10651 168.09 10.7595 170.372 22.5925C170.827 24.9535 170.191 25.7335 167.856 26.0595C163.05 26.7315 158.282 27.6735 153.499 28.5045C148.986 29.2875 144.473 30.0725 139.762 30.8925Z" fill="#FA1239"/>
<path opacity="0.13" d="M1268.33 -17.1015C1268.28 -18.7355 1268.89 -19.5585 1270.65 -19.8505C1280.46 -21.4765 1290.24 -23.2295 1300.04 -24.9005C1302.35 -25.2945 1306.82 -22.3285 1307.24 -20.0275C1309.62 -7.02351 1311.91 5.99447 1314.27 19.0005C1314.61 20.8865 1314.19 21.8175 1312.03 22.1725C1302.22 23.7885 1292.45 25.5965 1282.65 27.2875C1279.74 27.7905 1276.16 24.9035 1275.55 21.5535C1273.6 10.9045 1271.72 0.243491 1269.79 -10.4065C1269.38 -12.6525 1268.82 -14.8705 1268.33 -17.1015ZM1277.4 22.1135C1287.83 20.3345 1297.89 18.6185 1308.34 16.8345C1305.97 3.44949 1303.63 -9.67953 1301.26 -23.0605C1290.77 -21.2385 1280.62 -19.4735 1270.2 -17.6625C1272.63 -4.24352 1275 8.89148 1277.4 22.1135ZM1279.44 23.8925C1281.21 26.4335 1283.14 24.9765 1284.82 24.7025C1293.97 23.2125 1303.1 21.6035 1312.27 20.0285C1312.3 19.3685 1312.4 18.9545 1312.33 18.5685C1310.11 6.08647 1307.87 -6.39151 1305.65 -18.8725C1305.44 -20.0395 1305.14 -21.0255 1303.58 -20.9655C1303.55 -20.5655 1303.47 -20.2525 1303.52 -19.9635C1305.67 -8.10651 1307.77 3.75948 1310.05 15.5925C1310.51 17.9535 1309.87 18.7335 1307.54 19.0595C1302.73 19.7315 1297.97 20.6735 1293.18 21.5045C1288.67 22.2875 1284.16 23.0725 1279.44 23.8925Z" fill="#FA1239"/>
<path opacity="0.13" d="M130.841 47.6975C133.268 51.0515 135.597 54.1425 137.787 57.3265C140.201 60.8365 140.224 61.5405 137.116 64.5735C132.613 68.9675 128.081 73.3525 122.932 77.0495C117.613 80.8685 116.232 80.3755 111.697 75.5935C103.32 66.7635 97.5712 56.1255 90.3061 46.5395C86.5668 41.6045 87.1118 39.3835 92.1036 35.5655C98.6133 30.5875 105.158 25.6515 111.742 20.7675C115.004 18.3485 115.684 18.5115 118.124 21.6615C122.942 27.8785 127.156 34.5005 131.602 40.9695C133.305 43.4455 132.524 45.4655 130.841 47.6975ZM111.423 24.0745C105.116 28.8065 99.0037 33.2695 93.0389 37.9165C89.7856 40.4505 89.7083 41.5425 92.0833 45.0235C95.5603 50.1205 99.3209 55.0365 102.645 60.2245C106.11 65.6315 110.426 70.3325 114.529 75.2255C116.299 77.3365 117.889 77.4175 120.196 75.8915C125.862 72.1425 130.476 67.2565 135.475 62.7825C137.019 61.4005 136.928 60.1695 135.761 58.4885C131.046 51.6985 125.54 45.4795 121.083 38.5025C118.051 33.7575 114.821 29.1345 111.423 24.0745ZM128.435 46.1985C130.804 44.5785 130.37 43.1825 129.297 41.6275C126.513 37.5925 123.8 33.5095 121.034 29.4615C119.175 26.7415 117.274 24.0495 115.412 21.3725C114.254 21.9735 113.354 22.3085 112.879 23.4575C117.983 30.9175 123.142 38.4605 128.435 46.1985Z" fill="#FA1239"/>
<path opacity="0.13" d="M1270.52 40.6975C1272.95 44.0515 1275.28 47.1425 1277.47 50.3265C1279.88 53.8365 1279.91 54.5405 1276.8 57.5735C1272.3 61.9675 1267.76 66.3525 1262.62 70.0495C1257.3 73.8685 1255.92 73.3755 1251.38 68.5935C1243 59.7635 1237.25 49.1255 1229.99 39.5395C1226.25 34.6045 1226.79 32.3835 1231.79 28.5655C1238.3 23.5875 1244.84 18.6515 1251.42 13.7675C1254.69 11.3485 1255.37 11.5115 1257.81 14.6615C1262.63 20.8785 1266.84 27.5005 1271.29 33.9695C1272.99 36.4455 1272.21 38.4655 1270.52 40.6975ZM1251.11 17.0745C1244.8 21.8065 1238.69 26.2695 1232.72 30.9165C1229.47 33.4505 1229.39 34.5425 1231.77 38.0235C1235.24 43.1205 1239 48.0365 1242.33 53.2245C1245.79 58.6315 1250.11 63.3325 1254.21 68.2255C1255.98 70.3365 1257.57 70.4175 1259.88 68.8915C1265.55 65.1425 1270.16 60.2565 1275.16 55.7825C1276.7 54.4005 1276.61 53.1695 1275.44 51.4885C1270.73 44.6985 1265.22 38.4795 1260.77 31.5025C1257.73 26.7575 1254.5 22.1345 1251.11 17.0745ZM1268.12 39.1985C1270.49 37.5785 1270.05 36.1825 1268.98 34.6275C1266.2 30.5925 1263.48 26.5095 1260.72 22.4615C1258.86 19.7415 1256.96 17.0495 1255.09 14.3725C1253.94 14.9735 1253.04 15.3085 1252.56 16.4575C1257.67 23.9175 1262.83 31.4605 1268.12 39.1985Z" fill="#FA1239"/>
<path opacity="0.13" d="M310.77 122.814C313.265 126.284 315.621 129.613 318.036 132.901C319.646 135.094 319.602 137.034 317.559 138.984C312.394 143.912 307.361 148.988 301.37 152.977C297.245 155.723 295.431 154.915 292.029 151.28C283.504 142.174 277.488 131.335 270.076 121.469C266.466 116.665 267.006 114.307 271.742 110.696C278.26 105.728 284.804 100.791 291.378 95.8945C294.86 93.2995 295.477 93.4555 298.194 96.9805C302.61 102.711 306.576 108.745 310.575 114.757C313.071 118.512 313.079 118.697 310.77 122.814ZM291.249 99.0715C284.928 103.814 278.816 108.278 272.851 112.924C269.607 115.451 269.532 116.547 271.912 120.034C275.154 124.784 278.69 129.348 281.781 134.189C285.403 139.862 289.81 144.891 294.135 150.014C296.098 152.339 297.78 152.436 300.3 150.721C305.737 147.023 310.206 142.293 315.092 138.007C316.875 136.443 316.728 135.091 315.405 133.218C310.636 126.467 305.18 120.21 300.719 113.239C297.738 108.584 294.579 104.041 291.249 99.0715ZM292.645 98.3735C297.796 105.898 302.997 113.496 308.22 121.124C310.053 120.073 310.572 118.893 309.663 117.534C304.928 110.449 300.122 103.411 295.387 96.4245C294.105 96.8505 293.32 97.3215 292.645 98.3735Z" fill="#FA1239"/>
<path opacity="0.13" d="M1450.45 115.814C1452.95 119.284 1455.3 122.613 1457.72 125.901C1459.33 128.094 1459.29 130.034 1457.24 131.984C1452.08 136.912 1447.04 141.988 1441.05 145.977C1436.93 148.723 1435.12 147.915 1431.71 144.28C1423.19 135.174 1417.17 124.335 1409.76 114.469C1406.15 109.665 1406.69 107.307 1411.43 103.696C1417.94 98.7285 1424.49 93.7915 1431.06 88.8945C1434.54 86.2995 1435.16 86.4555 1437.88 89.9805C1442.29 95.7115 1446.26 101.745 1450.26 107.757C1452.75 111.512 1452.76 111.697 1450.45 115.814ZM1430.93 92.0715C1424.61 96.8145 1418.5 101.278 1412.53 105.924C1409.29 108.451 1409.22 109.547 1411.6 113.034C1414.84 117.784 1418.37 122.348 1421.46 127.189C1425.09 132.862 1429.49 137.891 1433.82 143.014C1435.78 145.339 1437.46 145.436 1439.98 143.721C1445.42 140.023 1449.89 135.293 1454.78 131.007C1456.56 129.443 1456.41 128.091 1455.09 126.218C1450.32 119.467 1444.86 113.21 1440.4 106.239C1437.42 101.584 1434.26 97.0415 1430.93 92.0715ZM1432.33 91.3735C1437.48 98.8985 1442.68 106.496 1447.9 114.124C1449.74 113.073 1450.26 111.893 1449.35 110.534C1444.61 103.449 1439.81 96.4115 1435.07 89.4245C1433.79 89.8505 1433 90.3215 1432.33 91.3735Z" fill="#FA1239"/>
<path opacity="0.13" d="M1091.2 -22.3315C1091.18 -22.2175 1091.24 -21.6965 1091 -21.4215C1088.63 -18.6725 1090.65 -16.7695 1092.23 -14.7285C1093.64 -12.9085 1095.02 -11.0605 1096.31 -9.15852C1098.79 -5.50952 1098.83 -4.80551 1095.58 -1.66151C1091.05 2.70949 1086.54 7.11249 1081.37 10.7865C1076.18 14.4745 1074.75 13.9395 1070.36 9.3215C1062.05 0.572495 1056.35 -9.97452 1049.15 -19.4735C1045.09 -24.8175 1045.58 -26.8765 1050.85 -30.9195C1057.27 -35.8455 1063.73 -40.7085 1070.23 -45.5365C1073.62 -48.0565 1074.25 -47.9005 1076.83 -44.5635C1081.58 -38.4245 1085.8 -31.9335 1090.09 -25.4885C1090.67 -24.6155 1091.28 -23.7495 1091.2 -22.3315ZM1070.03 -42.3305C1063.63 -37.5145 1057.45 -32.9755 1051.41 -28.2585C1048.44 -25.9415 1048.35 -24.7915 1050.49 -21.6315C1053.96 -16.5285 1057.73 -11.6155 1061.05 -6.42652C1064.63 -0.843521 1069.03 4.05349 1073.33 9.05849C1074.93 10.9205 1076.39 11.0535 1078.5 9.69048C1084.38 5.87648 1089.15 0.853492 1094.26 -3.81251C1095.57 -5.01151 1095.64 -6.16552 1094.52 -7.59852C1091.95 -10.8985 1089.5 -14.2915 1086.97 -17.6325C1081.05 -25.4855 1075.75 -33.7515 1070.03 -42.3305ZM1087.05 -20.1535C1088.91 -21.5025 1089.26 -22.6745 1088.34 -24.0345C1083.62 -31.0145 1078.88 -37.9795 1074.05 -45.0955C1072.97 -44.3795 1071.92 -44.1475 1071.48 -42.8865C1076.62 -35.3875 1081.78 -27.8505 1087.05 -20.1535Z" fill="#FA1239"/>
<path opacity="0.13" d="M218.921 181.333C221.297 175.012 220.126 169.522 215.17 164.583C212.664 167.934 209.576 170.169 205.86 171.6C201.358 173.334 197.302 172.285 193.59 169.653C191.258 168 191.211 165.336 193.184 162.755C198.959 155.196 203.519 154.247 212.041 158.811C212.662 159.143 213.195 159.765 214.029 159.562C215.283 156.07 215.165 153.002 213.568 149.203C211.145 149.493 208.668 150.128 206.153 149.77C203.932 149.454 201.339 149.16 201.186 146.378C201.026 143.488 203.313 142.295 205.886 141.777C209.262 141.098 210.842 141.669 215.301 145.14C216.289 142.388 220.15 140.839 217.924 136.994C217.455 136.183 221.202 130.99 222.488 130.235C224.017 129.338 225.106 130.183 226.204 131.021C226.895 131.548 227.606 132.291 227.17 133.136C226.03 135.346 225.189 138.094 222.969 139.228C219.437 141.033 218.884 144.859 216.382 147.294C215.698 147.959 216.45 149.106 216.699 149.975C217.522 152.85 217.694 155.83 217.004 158.634C216.373 161.2 217.008 162.896 218.693 164.761C222.334 168.791 222.975 173.689 222.233 178.837C221.985 180.552 221.501 182.199 218.921 181.333ZM212.81 162.732C206.869 156.842 199.771 157.325 195.072 163.927C193.698 165.857 193.947 167.302 196.117 168.531C201.809 171.756 210.101 168.914 212.81 162.732ZM203.183 146.389C206.46 147.84 209.345 148.13 212.466 146.73C209.697 143.377 206.319 143.157 203.183 146.389Z" fill="#FA1239"/>
<path opacity="0.13" d="M1358.6 174.333C1360.98 168.012 1359.81 162.522 1354.85 157.583C1352.35 160.934 1349.26 163.169 1345.54 164.6C1341.04 166.334 1336.99 165.285 1333.27 162.653C1330.94 161 1330.89 158.336 1332.87 155.755C1338.64 148.196 1343.2 147.247 1351.72 151.811C1352.35 152.143 1352.88 152.765 1353.71 152.562C1354.97 149.07 1354.85 146.002 1353.25 142.203C1350.83 142.493 1348.35 143.128 1345.84 142.77C1343.62 142.454 1341.02 142.16 1340.87 139.378C1340.71 136.488 1343 135.295 1345.57 134.777C1348.95 134.098 1350.53 134.669 1354.98 138.14C1355.97 135.388 1359.83 133.839 1357.61 129.994C1357.14 129.183 1360.89 123.99 1362.17 123.235C1363.7 122.338 1364.79 123.183 1365.89 124.021C1366.58 124.548 1367.29 125.291 1366.85 126.136C1365.71 128.346 1364.87 131.094 1362.65 132.228C1359.12 134.033 1358.57 137.859 1356.07 140.294C1355.38 140.959 1356.13 142.106 1356.38 142.975C1357.2 145.85 1357.38 148.83 1356.69 151.634C1356.06 154.2 1356.69 155.896 1358.38 157.761C1362.02 161.791 1362.66 166.689 1361.92 171.837C1361.67 173.552 1361.18 175.199 1358.6 174.333ZM1352.49 155.732C1346.55 149.842 1339.45 150.325 1334.75 156.927C1333.38 158.857 1333.63 160.302 1335.8 161.531C1341.49 164.756 1349.78 161.914 1352.49 155.732ZM1342.87 139.389C1346.14 140.84 1349.03 141.13 1352.15 139.73C1349.38 136.377 1346 136.157 1342.87 139.389Z" fill="#FA1239"/>
<path opacity="0.13" d="M267.7 25.4715C268.702 25.5065 269.11 25.9295 269.343 26.5705C270.254 29.0755 272.001 31.0575 273.63 33.1025C274.925 34.7265 274.78 35.8625 273.096 37.2895C262.582 46.1955 251.745 54.6825 240.389 62.5275C236.685 65.0855 235.783 64.9275 233.385 61.1915C230.2 56.2295 230.214 56.2425 234.41 52.0675C240.39 46.1185 247.467 41.4675 253.926 36.0855C257.802 32.8565 261.799 29.7695 265.766 26.6475C266.409 26.1415 267.177 25.7855 267.7 25.4715ZM255.955 37.6975C256.407 39.6485 258.751 41.5265 256.731 42.6575C254.848 43.7125 255.163 40.4845 253.619 39.6445C252.658 40.3295 251.404 40.8155 250.885 42.1055C251.556 43.2835 252.226 44.3415 252.772 45.4595C253.137 46.2065 253.467 47.1475 252.509 47.6805C251.463 48.2615 251.038 47.3785 250.613 46.6315C250.052 45.6455 249.457 44.6775 248.856 43.6675C247.206 44.4025 245.971 45.3865 244.948 46.5455C243.815 47.8285 246.412 49.7285 244.497 50.9445C242.791 51.1865 243.061 49.2125 241.713 48.8935C240.802 49.7345 239.485 50.2485 238.94 51.6725C239.829 52.8065 240.688 53.8535 241.49 54.9415C241.995 55.6285 242.492 56.4795 241.664 57.1665C240.765 57.9125 240.153 57.1015 239.569 56.4885C238.651 55.5225 238.092 54.2075 236.74 53.5995C235.517 54.3245 234.596 55.2885 233.731 56.4925C234.564 58.3595 235.374 60.2505 237.122 61.6465C243.911 56.9105 250.609 52.1925 257.361 47.5505C260.924 45.1005 264.271 42.4165 267.311 39.3635C267.959 38.7135 268.824 38.1215 268.587 37.0045C268.186 35.1115 269.621 34.6395 271.236 34.2795C269.814 32.3025 268.609 30.6285 267.457 29.0265C266.185 29.1265 265.532 29.7405 265.057 30.5235C265.17 32.2625 267.14 33.4575 266.503 35.3755C264.096 35.5675 264.286 32.9895 262.575 32.2025C259.749 35.1585 266.154 37.2015 263.448 40.1225C261.076 39.3095 261.092 36.4165 258.954 35.3335C257.945 36.1275 256.97 36.8965 255.955 37.6975Z" fill="#FA1239"/>
<path opacity="0.13" d="M1407.38 18.4715C1408.38 18.5065 1408.79 18.9295 1409.03 19.5705C1409.94 22.0755 1411.68 24.0575 1413.31 26.1025C1414.61 27.7265 1414.46 28.8625 1412.78 30.2895C1402.27 39.1955 1391.43 47.6825 1380.07 55.5275C1376.37 58.0855 1375.47 57.9275 1373.07 54.1915C1369.88 49.2295 1369.9 49.2425 1374.09 45.0675C1380.07 39.1185 1387.15 34.4675 1393.61 29.0855C1397.49 25.8565 1401.48 22.7695 1405.45 19.6475C1406.09 19.1415 1406.86 18.7855 1407.38 18.4715ZM1395.64 30.6975C1396.09 32.6485 1398.43 34.5265 1396.41 35.6575C1394.53 36.7125 1394.85 33.4845 1393.3 32.6445C1392.34 33.3295 1391.09 33.8155 1390.57 35.1055C1391.24 36.2835 1391.91 37.3415 1392.45 38.4595C1392.82 39.2065 1393.15 40.1475 1392.19 40.6805C1391.15 41.2615 1390.72 40.3785 1390.3 39.6315C1389.74 38.6455 1389.14 37.6775 1388.54 36.6675C1386.89 37.4025 1385.65 38.3865 1384.63 39.5455C1383.5 40.8285 1386.1 42.7285 1384.18 43.9445C1382.47 44.1865 1382.74 42.2125 1381.4 41.8935C1380.49 42.7345 1379.17 43.2485 1378.62 44.6725C1379.51 45.8065 1380.37 46.8535 1381.17 47.9415C1381.68 48.6285 1382.18 49.4795 1381.35 50.1665C1380.45 50.9125 1379.84 50.1015 1379.25 49.4885C1378.33 48.5225 1377.77 47.2075 1376.42 46.5995C1375.2 47.3245 1374.28 48.2885 1373.41 49.4925C1374.25 51.3595 1375.06 53.2505 1376.81 54.6465C1383.59 49.9105 1390.29 45.1925 1397.04 40.5505C1400.61 38.1005 1403.95 35.4165 1406.99 32.3635C1407.64 31.7135 1408.51 31.1215 1408.27 30.0045C1407.87 28.1115 1409.3 27.6395 1410.92 27.2795C1409.5 25.3025 1408.29 23.6285 1407.14 22.0265C1405.87 22.1265 1405.21 22.7405 1404.74 23.5235C1404.85 25.2625 1406.82 26.4575 1406.19 28.3755C1403.78 28.5675 1403.97 25.9895 1402.26 25.2025C1399.43 28.1585 1405.84 30.2015 1403.13 33.1225C1400.76 32.3095 1400.78 29.4165 1398.64 28.3335C1397.63 29.1275 1396.65 29.8965 1395.64 30.6975Z" fill="#FA1239"/>
<path opacity="0.13" d="M29.2592 181.312C40.1466 172.337 52.855 166.393 61.7742 155.713C59.6433 151.122 58.3094 150.109 55.3977 151.021C55.3316 152.776 57.3537 153.969 56.8657 155.985C54.5447 156.234 54.5548 153.88 53.2444 152.981C50.4333 153.982 52.5622 155.23 53.1 156.395C53.7069 157.71 55.1659 158.864 53.9591 160.755C51.4042 160.085 51.4408 157.179 49.4959 156.057C48.221 156.528 47.244 157.435 46.4103 158.381C46.3575 158.592 46.2812 158.714 46.3137 158.791C46.9441 160.252 48.8188 162.255 47.246 163.184C45.0541 164.478 45.5268 160.978 44.0252 160.326C42.8459 160.767 41.9319 161.58 41.1928 162.549C41.9187 163.986 42.6609 165.354 43.2983 166.768C43.5708 167.371 43.4264 168.038 42.7432 168.362C42.0336 168.698 41.5385 168.308 41.1796 167.724C40.4771 166.581 40.0867 165.235 38.9571 164.386C35.8146 165.762 34.1564 167.889 35.5361 171.245C33.2913 172.191 33.3238 170.19 32.4281 169.529C31.0383 170.03 30.0664 170.906 29.1992 172.231C29.9596 173.19 30.7659 174.137 31.4897 175.14C32.0824 175.962 33.0523 176.964 31.8791 177.837C30.8441 178.607 30.2199 177.473 29.6211 176.779C28.8779 175.918 28.1479 175.046 27.4607 174.236C22.786 175.942 24.4717 178.67 26.2417 181.296C22.8155 182.41 22.7454 179.614 21.6331 178.072C20.5016 176.504 21.5416 175.719 22.5786 174.716C32.8714 164.762 44.7918 156.728 55.6955 147.498C57.6882 145.811 59.1248 145.397 60.3326 148.467C61.1113 150.446 62.7248 152.122 64.0505 153.871C65.2258 155.421 65.0834 156.534 63.5056 157.825C54.0729 165.545 44.8294 173.492 34.6638 180.305C32.7087 181.616 32.7595 181.689 29.2592 181.312Z" fill="#FA1239"/>
<path opacity="0.13" d="M1168.94 174.312C1179.83 165.337 1192.54 159.393 1201.46 148.713C1199.33 144.122 1197.99 143.109 1195.08 144.021C1195.01 145.776 1197.04 146.969 1196.55 148.985C1194.23 149.234 1194.24 146.88 1192.93 145.981C1190.12 146.982 1192.25 148.23 1192.78 149.395C1193.39 150.71 1194.85 151.864 1193.64 153.755C1191.09 153.085 1191.12 150.179 1189.18 149.057C1187.9 149.528 1186.93 150.435 1186.09 151.381C1186.04 151.592 1185.96 151.714 1186 151.791C1186.63 153.252 1188.5 155.255 1186.93 156.184C1184.74 157.478 1185.21 153.978 1183.71 153.326C1182.53 153.767 1181.62 154.58 1180.88 155.549C1181.6 156.986 1182.34 158.354 1182.98 159.768C1183.25 160.371 1183.11 161.038 1182.43 161.362C1181.72 161.698 1181.22 161.308 1180.86 160.724C1180.16 159.581 1179.77 158.235 1178.64 157.386C1175.5 158.762 1173.84 160.889 1175.22 164.245C1172.97 165.191 1173.01 163.19 1172.11 162.529C1170.72 163.03 1169.75 163.906 1168.88 165.231C1169.64 166.19 1170.45 167.137 1171.17 168.14C1171.77 168.962 1172.74 169.964 1171.56 170.837C1170.53 171.607 1169.9 170.473 1169.3 169.779C1168.56 168.918 1167.83 168.046 1167.14 167.236C1162.47 168.942 1164.16 171.67 1165.93 174.296C1162.5 175.41 1162.43 172.614 1161.32 171.072C1160.18 169.504 1161.23 168.719 1162.26 167.716C1172.55 157.762 1184.48 149.728 1195.38 140.498C1197.37 138.811 1198.81 138.397 1200.02 141.467C1200.79 143.446 1202.41 145.122 1203.73 146.871C1204.91 148.421 1204.77 149.534 1203.19 150.825C1193.76 158.545 1184.51 166.492 1174.35 173.305C1172.39 174.616 1172.44 174.689 1168.94 174.312Z" fill="#FA1239"/>
<path opacity="0.13" d="M1033.4 -6.27351C1030.69 -1.18851 1032.18 4.30048 1031.62 9.41448C1029.89 9.56148 1029.7 8.58149 1029.55 7.66549C1028.86 3.39749 1029.03 -0.847504 1030.18 -5.0185C1030.66 -6.7815 1031.6 -8.42452 1033.7 -8.58152C1035.76 -8.73552 1036.5 -6.98752 1037.31 -5.54252C1037.66 -4.92352 1037.96 -4.17751 1037.96 -3.48851C1037.98 3.47949 1038.97 10.4185 1038.61 17.3935C1038.42 20.9855 1037.48 21.7535 1033.74 22.0745C1031.69 22.2515 1029.76 22.0945 1027.86 21.2685C1025.7 20.3315 1024.57 18.8185 1024.46 16.4745C1024.03 7.48248 1024.83 -1.42052 1026.77 -10.1925C1027.53 -13.6695 1029.09 -16.7155 1032.99 -18.2525C1037.92 -20.1985 1041.41 -16.8455 1042.66 -11.3705C1043.45 -7.92652 1043.24 -4.33552 1043.08 -0.792521C1042.95 2.21848 1042.99 5.23749 1042.83 8.24749C1042.78 9.21149 1042.7 10.6415 1041.2 10.3845C1039.97 10.1745 1040.34 8.92747 1040.36 8.01647C1040.48 2.30047 1040.86 -3.41353 1040.45 -9.13453C1040.33 -10.8275 1039.93 -12.3945 1039 -13.8535C1037.03 -16.9515 1033.47 -17.1285 1031.24 -14.1235C1030.12 -12.6005 1029.36 -10.8635 1029.01 -8.99552C1027.52 -1.09852 1026.63 6.85349 1026.91 14.8985C1027.05 18.7725 1031.77 21.2615 1035.19 19.3335C1036.08 18.8305 1036.16 17.9885 1036.13 17.1685C1035.93 10.3145 1035.7 3.46048 1035.44 -3.39152C1035.39 -4.56452 1034.87 -5.55051 1033.4 -6.27351Z" fill="#FA1239"/>
<path opacity="0.13" d="M254.607 135.179C252.02 140.161 253.225 145.604 253.021 150.722C251.18 150.998 250.953 150.031 250.799 149.113C250.082 144.847 250.269 140.602 251.389 136.427C251.862 134.665 252.774 132.992 254.856 132.805C257.084 132.605 257.807 134.519 258.656 136.045C258.998 136.658 259.19 137.422 259.216 138.126C259.462 144.878 259.78 151.63 259.822 158.384C259.847 162.406 258.839 163.124 254.731 163.452C249.676 163.856 245.29 162.178 245.495 155.426C245.735 147.501 246.258 139.633 247.792 131.852C248.32 129.175 249.312 126.566 251.42 124.699C256.228 120.438 262.116 122.652 263.793 129.318C264.144 130.719 264.282 132.203 264.292 133.65C264.327 138.537 264.323 143.427 264.192 148.312C264.157 149.629 264.481 151.343 262.546 151.895C261.048 151.162 261.654 149.923 261.653 148.842C261.646 143.229 262.145 137.617 261.667 132.001C261.532 130.412 261.132 128.952 260.275 127.585C258.299 124.431 254.79 124.21 252.519 127.201C251.437 128.626 250.666 130.26 250.327 132.012C248.736 140.21 247.856 148.47 248.144 156.833C248.203 158.539 248.638 159.819 250.444 160.495C252.533 161.278 254.598 161.25 256.617 160.533C257.51 160.216 257.403 159.115 257.379 158.303C257.171 151.553 256.948 144.803 256.678 138.055C256.629 136.892 256.208 135.82 254.607 135.179Z" fill="#FA1239"/>
<path opacity="0.13" d="M1394.29 128.179C1391.7 133.161 1392.91 138.604 1392.7 143.722C1390.86 143.998 1390.64 143.031 1390.48 142.113C1389.77 137.847 1389.95 133.602 1391.07 129.427C1391.55 127.665 1392.46 125.992 1394.54 125.805C1396.77 125.605 1397.49 127.519 1398.34 129.045C1398.68 129.658 1398.87 130.422 1398.9 131.126C1399.15 137.878 1399.46 144.63 1399.51 151.384C1399.53 155.406 1398.52 156.124 1394.41 156.452C1389.36 156.856 1384.97 155.178 1385.18 148.426C1385.42 140.501 1385.94 132.633 1387.48 124.852C1388 122.175 1389 119.566 1391.1 117.699C1395.91 113.438 1401.8 115.652 1403.48 122.318C1403.83 123.719 1403.97 125.203 1403.98 126.65C1404.01 131.537 1404.01 136.427 1403.88 141.312C1403.84 142.629 1404.16 144.343 1402.23 144.895C1400.73 144.162 1401.34 142.923 1401.34 141.842C1401.33 136.229 1401.83 130.617 1401.35 125.001C1401.22 123.412 1400.82 121.952 1399.96 120.585C1397.98 117.431 1394.47 117.21 1392.2 120.201C1391.12 121.626 1390.35 123.26 1390.01 125.012C1388.42 133.21 1387.54 141.47 1387.83 149.833C1387.89 151.539 1388.32 152.819 1390.13 153.495C1392.22 154.278 1394.28 154.25 1396.3 153.533C1397.19 153.216 1397.09 152.115 1397.06 151.303C1396.85 144.553 1396.63 137.803 1396.36 131.055C1396.31 129.892 1395.89 128.82 1394.29 128.179Z" fill="#FA1239"/>
<path opacity="0.13" d="M74.7518 60.2225C72.0821 65.1775 73.6162 70.6725 73.0347 75.7815C71.3074 75.9425 71.1152 74.9645 70.9647 74.0475C70.2643 69.7795 70.4442 65.5345 71.588 61.3645C72.0709 59.6045 73.0042 57.9555 75.1006 57.7955C77.1624 57.6375 77.9096 59.3825 78.7219 60.8265C79.0696 61.4445 79.3655 62.1915 79.3675 62.8815C79.3919 69.8485 80.3801 76.7885 80.0192 83.7625C79.8341 87.3415 78.8724 88.1325 75.1565 88.4505C73.1038 88.6265 71.1803 88.4725 69.2761 87.6465C67.1156 86.7095 65.979 85.2005 65.8672 82.8555C65.4371 73.8635 66.3115 64.9765 68.1455 56.1825C68.6569 53.7285 69.5587 51.1605 71.6703 49.6925C75.9495 46.7165 80.2032 45.8125 83.485 52.9075C83.788 53.5625 84.0269 54.2785 84.1214 54.9885C84.9907 61.5245 84.401 68.0755 84.2465 74.6195C84.2241 75.5805 84.1163 77.0125 82.6188 76.7645C81.3947 76.5605 81.7465 75.3125 81.7668 74.3995C81.8949 68.6835 82.2609 62.9695 81.8624 57.2495C81.7445 55.5575 81.353 53.9895 80.4208 52.5295C78.4393 49.4255 74.886 49.2415 72.6616 52.2495C71.5361 53.7715 70.7706 55.5065 70.4198 57.3745C68.9345 65.2715 68.0439 73.2235 68.3194 81.2685C68.4526 85.1495 73.1547 87.6345 76.5971 85.7155C77.4918 85.2165 77.5141 84.3825 77.5527 83.5565C77.8781 76.6855 76.8411 69.8595 76.836 62.9965C76.834 61.8615 76.3958 60.7575 74.7518 60.2225Z" fill="#FA1239"/>
<path opacity="0.13" d="M1214.44 53.2225C1211.77 58.1775 1213.3 63.6725 1212.72 68.7815C1210.99 68.9425 1210.8 67.9645 1210.65 67.0475C1209.95 62.7795 1210.13 58.5345 1211.27 54.3645C1211.75 52.6045 1212.69 50.9555 1214.78 50.7955C1216.85 50.6375 1217.59 52.3825 1218.41 53.8265C1218.75 54.4445 1219.05 55.1915 1219.05 55.8815C1219.08 62.8485 1220.06 69.7885 1219.7 76.7625C1219.52 80.3415 1218.56 81.1325 1214.84 81.4505C1212.79 81.6265 1210.86 81.4725 1208.96 80.6465C1206.8 79.7095 1205.66 78.2005 1205.55 75.8555C1205.12 66.8635 1205.99 57.9765 1207.83 49.1825C1208.34 46.7285 1209.24 44.1605 1211.35 42.6925C1215.63 39.7165 1219.89 38.8125 1223.17 45.9075C1223.47 46.5625 1223.71 47.2785 1223.8 47.9885C1224.67 54.5245 1224.08 61.0755 1223.93 67.6195C1223.91 68.5805 1223.8 70.0125 1222.3 69.7645C1221.08 69.5605 1221.43 68.3125 1221.45 67.3995C1221.58 61.6835 1221.94 55.9695 1221.55 50.2495C1221.43 48.5575 1221.04 46.9895 1220.1 45.5295C1218.12 42.4255 1214.57 42.2415 1212.34 45.2495C1211.22 46.7715 1210.45 48.5065 1210.1 50.3745C1208.62 58.2715 1207.73 66.2235 1208 74.2685C1208.14 78.1495 1212.84 80.6345 1216.28 78.7155C1217.18 78.2165 1217.2 77.3825 1217.24 76.5565C1217.56 69.6855 1216.52 62.8595 1216.52 55.9965C1216.52 54.8615 1216.08 53.7575 1214.44 53.2225Z" fill="#FA1239"/>
<path opacity="0.13" d="M235.156 110.133C239.862 107.358 244.67 105.694 248.469 102.31C249.45 101.436 250.468 101.102 251.626 101.733C252.439 102.176 252.705 102.993 252.493 103.892C252.223 105.038 251.419 105.837 250.28 105.81C245.941 105.707 242.665 108.232 239.395 110.332C233.359 114.208 226.462 116.58 220.738 120.96C219.73 121.731 218.502 121.662 217.515 120.788C216.707 120.071 216.719 119.111 217.152 118.198C217.629 117.192 218.545 116.175 219.586 116.62C222.976 118.068 225.137 115.602 227.688 114.438C229.171 113.761 230.524 112.804 232.256 111.785C229.17 109.622 226.293 108.211 223.151 107.262C219.097 106.038 215.996 103.763 214.715 99.5645C214.567 99.0775 214.246 98.6385 213.987 98.1865C213.943 98.1085 213.811 98.0785 213.72 98.0265C211.854 97.7555 210.657 100.318 208.584 99.3435C208.346 97.7525 209.6 97.5525 210.464 97.0945C218.737 92.7005 227.649 89.5585 235.678 84.6755C236.474 84.1915 237.515 83.6335 238.102 84.8795C238.663 86.0715 237.64 86.5825 236.743 86.9125C233.696 88.0345 233.207 89.9375 234.983 92.4645C237.046 95.3995 236.646 98.5545 236.063 101.768C235.604 104.314 234.782 106.822 235.156 110.133ZM230.303 107.254C228.466 104.858 227.924 102.454 225.491 101.255C224.219 100.628 224.279 99.1245 224.917 97.9195C225.39 97.0275 226.284 96.5845 227.321 96.8295C228.76 97.1705 229.56 98.1955 229.26 99.5925C228.553 102.88 231.068 104.398 232.697 107.025C233.979 100.992 235.75 95.5815 231.064 90.4185C226.203 92.4565 221.118 94.5885 216.048 96.7145C218.417 103.116 218.417 103.116 230.303 107.254Z" fill="#FA1239"/>
<path opacity="0.13" d="M1374.84 103.133C1379.55 100.358 1384.35 98.6945 1388.15 95.3105C1389.13 94.4365 1390.15 94.1025 1391.31 94.7335C1392.12 95.1765 1392.39 95.9935 1392.18 96.8925C1391.91 98.0385 1391.1 98.8375 1389.96 98.8105C1385.62 98.7075 1382.35 101.232 1379.08 103.332C1373.04 107.208 1366.15 109.58 1360.42 113.96C1359.41 114.731 1358.19 114.662 1357.2 113.788C1356.39 113.071 1356.4 112.111 1356.84 111.198C1357.31 110.192 1358.23 109.175 1359.27 109.62C1362.66 111.068 1364.82 108.602 1367.37 107.438C1368.85 106.761 1370.21 105.804 1371.94 104.785C1368.85 102.622 1365.98 101.211 1362.83 100.262C1358.78 99.0385 1355.68 96.7635 1354.4 92.5645C1354.25 92.0775 1353.93 91.6385 1353.67 91.1865C1353.63 91.1085 1353.49 91.0785 1353.4 91.0265C1351.54 90.7555 1350.34 93.3175 1348.27 92.3435C1348.03 90.7525 1349.28 90.5525 1350.15 90.0945C1358.42 85.7005 1367.33 82.5585 1375.36 77.6755C1376.16 77.1915 1377.2 76.6335 1377.79 77.8795C1378.35 79.0715 1377.32 79.5825 1376.43 79.9125C1373.38 81.0345 1372.89 82.9375 1374.67 85.4645C1376.73 88.3995 1376.33 91.5545 1375.75 94.7685C1375.29 97.3145 1374.47 99.8215 1374.84 103.133ZM1369.99 100.254C1368.15 97.8585 1367.61 95.4545 1365.17 94.2555C1363.9 93.6285 1363.96 92.1245 1364.6 90.9195C1365.07 90.0275 1365.97 89.5845 1367 89.8295C1368.44 90.1705 1369.24 91.1955 1368.94 92.5925C1368.24 95.8795 1370.75 97.3975 1372.38 100.025C1373.66 93.9915 1375.43 88.5815 1370.75 83.4185C1365.89 85.4565 1360.8 87.5885 1355.73 89.7145C1358.1 96.1165 1358.1 96.1165 1369.99 100.254Z" fill="#FA1239"/>
<path opacity="0.13" d="M55.3529 35.1355C60.0702 32.3405 64.8771 30.6625 68.6784 27.2795C69.5598 26.4955 70.4758 26.1835 71.5667 26.6055C72.4685 26.9545 72.8111 27.7465 72.7166 28.6285C72.5925 29.7795 71.8524 30.7825 70.728 30.7475C66.2536 30.6055 62.8986 33.2065 59.5365 35.3555C53.4944 39.2195 46.6025 41.5985 40.8796 45.9805C39.8731 46.7515 38.6308 46.6485 37.6629 45.7595C36.8699 45.0315 36.9035 44.0625 37.3478 43.1585C37.8378 42.1615 38.7629 41.1615 39.8071 41.6215C43.0726 43.0595 45.172 40.7035 47.6283 39.5715C49.1462 38.8715 50.536 37.9005 52.1708 36.9415C50.6051 35.0425 48.526 34.1405 46.5628 33.4525C40.963 31.4915 35.3846 29.6935 34.436 23.0285C32.0682 22.9285 30.8909 24.9675 28.8464 24.5105C28.4123 22.8285 29.74 22.5305 30.6835 22.0795C36.0962 19.4915 41.5547 16.9975 46.9481 14.3715C49.8843 12.9425 52.7075 11.2915 55.6101 9.79249C56.4895 9.33849 57.6048 8.47051 58.2931 9.92451C58.8513 11.1045 57.7726 11.6065 56.883 11.9315C53.7822 13.0655 53.4467 15.0115 55.1821 17.5025C57.2307 20.4425 56.8301 23.5935 56.2364 26.8105C55.7657 29.3525 54.9371 31.8615 55.3529 35.1355ZM36.3636 21.6485C37.7087 29.5245 44.5041 29.7435 50.4353 32.4375C48.7456 29.9175 48.2444 27.5785 45.8257 26.4075C44.5254 25.7775 44.4451 24.3785 45.0022 23.1145C45.477 22.0365 46.4306 21.5615 47.5896 21.8495C48.8666 22.1675 49.7236 23.1355 49.44 24.3745C48.6846 27.6775 51.091 29.3685 52.8956 31.9235C54.1248 26.0255 56.0097 20.5805 51.2029 15.4385C46.4022 17.4475 41.39 19.5445 36.3636 21.6485Z" fill="#FA1239"/>
<path opacity="0.13" d="M1195.04 28.1355C1199.75 25.3405 1204.56 23.6625 1208.36 20.2795C1209.24 19.4955 1210.16 19.1835 1211.25 19.6055C1212.15 19.9545 1212.49 20.7465 1212.4 21.6285C1212.28 22.7795 1211.54 23.7825 1210.41 23.7475C1205.94 23.6055 1202.58 26.2065 1199.22 28.3555C1193.18 32.2195 1186.29 34.5985 1180.56 38.9805C1179.56 39.7515 1178.31 39.6485 1177.35 38.7595C1176.55 38.0315 1176.59 37.0625 1177.03 36.1585C1177.52 35.1615 1178.45 34.1615 1179.49 34.6215C1182.76 36.0595 1184.86 33.7035 1187.31 32.5715C1188.83 31.8715 1190.22 30.9005 1191.85 29.9415C1190.29 28.0425 1188.21 27.1405 1186.25 26.4525C1180.65 24.4915 1175.07 22.6935 1174.12 16.0285C1171.75 15.9285 1170.57 17.9675 1168.53 17.5105C1168.1 15.8285 1169.42 15.5305 1170.37 15.0795C1175.78 12.4915 1181.24 9.9975 1186.63 7.3715C1189.57 5.9425 1192.39 4.29149 1195.29 2.79249C1196.17 2.33849 1197.29 1.47051 1197.98 2.92451C1198.54 4.10451 1197.46 4.6065 1196.57 4.9315C1193.47 6.0655 1193.13 8.01151 1194.87 10.5025C1196.91 13.4425 1196.51 16.5935 1195.92 19.8105C1195.45 22.3525 1194.62 24.8615 1195.04 28.1355ZM1176.05 14.6485C1177.39 22.5245 1184.19 22.7435 1190.12 25.4375C1188.43 22.9175 1187.93 20.5785 1185.51 19.4075C1184.21 18.7775 1184.13 17.3785 1184.69 16.1145C1185.16 15.0365 1186.11 14.5615 1187.27 14.8495C1188.55 15.1675 1189.41 16.1355 1189.12 17.3745C1188.37 20.6775 1190.77 22.3685 1192.58 24.9235C1193.81 19.0255 1195.69 13.5805 1190.89 8.43852C1186.09 10.4475 1181.07 12.5445 1176.05 14.6485Z" fill="#FA1239"/>
<path opacity="0.13" d="M317.039 181.445C314.282 181.761 313.444 180.6 313.923 178.923C314.731 176.088 316.934 174.124 319.096 172.215C319.494 171.863 320.084 171.76 320.588 172.046C322.414 173.082 323.653 172.876 324.448 170.719C324.934 169.401 326.212 169.904 327.22 170.158C330.899 171.085 334.571 172.039 338.675 173.093C339.71 168.392 341.384 163.855 343.923 159.673C347.043 154.532 351.048 150.922 357.727 151.627C361.156 151.989 363.401 153.641 364.239 156.977C365.715 162.855 364.439 168.53 362.611 174.11C362.059 175.794 361.397 177.434 361.121 179.252C362.075 180.458 363.856 180.139 365.22 181.446C362.28 181.699 359.676 181.699 357.054 180.923C347.541 178.109 338.012 175.346 328.486 172.573C327.816 172.378 327.139 171.865 326.336 172.554C326.82 174.454 329.97 173.119 330.123 175.575C328.827 176.501 327.532 175.594 326.281 175.508C324.3 177.103 326.028 180 324.04 181.515C323.721 181.758 323.046 181.549 322.298 181.549C322.684 179.513 323.025 177.718 323.364 175.933C321.466 175.444 319.025 174.294 318.098 176.041C317.326 177.499 313.874 178.844 317.039 181.445ZM340.817 173.985C347.05 175.662 352.688 177.926 358.661 178.96C360.97 172.69 363.078 166.687 362.679 160.201C362.526 157.701 362.24 154.936 359.236 154.144C355.509 153.162 351.785 153.376 348.982 156.449C344.502 161.361 341.88 167.152 340.817 173.985Z" fill="#FA1239"/>
<path opacity="0.13" d="M1040.08 153.311C1033.58 158.258 1027.23 163.097 1020.87 167.909C1018.22 169.908 1019.46 172.102 1020.57 174.286C1019.24 174.771 1018.18 174.8 1017.49 173.479C1016.5 171.58 1016.33 169.678 1017.63 167.869C1019.38 165.452 1021.9 163.833 1024.22 162.047C1029.38 158.069 1034.69 154.28 1039.91 150.384C1043.71 147.554 1044.33 147.637 1047.22 151.386C1051.95 157.539 1056.19 164.017 1060.44 170.493C1062.13 173.077 1061.71 174.127 1059.88 174.315C1055.22 165.898 1049.4 158.563 1044.37 150.789C1043 150.982 1042.22 151.562 1041.59 152.648C1046.44 159.779 1051.32 166.941 1056.26 174.195C1054.37 175.126 1053.93 173.66 1053.3 172.74C1048.98 166.442 1044.71 160.121 1040.08 153.311Z" fill="#FA1239"/>
<path opacity="0.13" d="M306.277 38.1115C309.066 37.3485 311.256 37.9355 311.738 41.2195C312.212 44.4515 310.594 46.3555 306.188 47.6645C305.765 51.1245 304.861 54.4795 300.767 55.4705C295.605 56.7195 290.495 56.7865 285.814 53.8125C285.161 53.3985 284.622 52.5635 284.378 51.8145C282.688 46.6265 281.904 41.3015 282.222 35.8485C282.314 34.2585 283.175 33.4485 284.898 33.4595C291.029 33.4985 297.163 33.5645 303.292 33.4365C306.969 33.3605 305.33 36.3355 306.277 38.1115ZM284.574 35.7095C284.158 40.0545 284.846 44.0115 285.422 48.0175C285.966 51.7955 288.168 53.5055 291.645 53.8615C294.143 54.1175 296.709 54.1205 299.208 53.8755C301.8 53.6215 303.27 51.9585 303.688 49.3715C304.423 44.8275 303.401 40.3625 303.519 35.7095C297.096 35.7095 291.018 35.7095 284.574 35.7095ZM306.223 45.3435C308.794 44.9825 310.09 43.8295 309.763 41.3955C309.606 40.2195 308.895 39.3685 307.579 39.8905C304.634 41.0575 306.429 43.3255 306.223 45.3435Z" fill="#FA1239"/>
<path opacity="0.13" d="M1445.96 31.1115C1448.75 30.3485 1450.94 30.9355 1451.42 34.2195C1451.9 37.4515 1450.28 39.3555 1445.87 40.6645C1445.45 44.1245 1444.54 47.4795 1440.45 48.4705C1435.29 49.7195 1430.18 49.7865 1425.5 46.8125C1424.84 46.3985 1424.31 45.5635 1424.06 44.8145C1422.37 39.6265 1421.59 34.3015 1421.91 28.8485C1422 27.2585 1422.86 26.4485 1424.58 26.4595C1430.71 26.4985 1436.85 26.5645 1442.98 26.4365C1446.65 26.3605 1445.01 29.3355 1445.96 31.1115ZM1424.26 28.7095C1423.84 33.0545 1424.53 37.0115 1425.11 41.0175C1425.65 44.7955 1427.85 46.5055 1431.33 46.8615C1433.83 47.1175 1436.39 47.1205 1438.89 46.8755C1441.48 46.6215 1442.95 44.9585 1443.37 42.3715C1444.11 37.8275 1443.08 33.3625 1443.2 28.7095C1436.78 28.7095 1430.7 28.7095 1424.26 28.7095ZM1445.91 38.3435C1448.48 37.9825 1449.77 36.8295 1449.45 34.3955C1449.29 33.2195 1448.58 32.3685 1447.26 32.8905C1444.32 34.0575 1446.11 36.3255 1445.91 38.3435Z" fill="#FA1239"/>
<path opacity="0.13" d="M1052.58 84.2565C1055.2 83.5225 1057.4 83.9395 1058.06 87.0035C1058.67 89.8635 1057.34 92.2545 1054.18 93.2215C1052.79 93.6455 1052.47 94.2025 1052.23 95.4865C1051.45 99.7565 1049.11 101.735 1044.71 102.158C1043.76 102.249 1042.81 102.269 1041.86 102.284C1033.09 102.423 1030.91 100.703 1029.31 92.2345C1028.77 89.3765 1028.51 86.4855 1028.46 83.5605C1028.42 80.7235 1029.3 79.3785 1032.5 79.5325C1037.35 79.7665 1042.22 79.5935 1047.09 79.5915C1051.85 79.5895 1051.85 79.5885 1052.58 84.2565ZM1031.04 81.8765C1030.37 86.0785 1030.99 90.0455 1031.83 93.9875C1032.8 98.5205 1034.07 99.6925 1038.79 100.12C1040.88 100.31 1043.02 100.267 1045.11 100.084C1047.98 99.8345 1049.62 98.2225 1050.08 95.3375C1050.79 90.8765 1049.69 86.4935 1049.95 81.8765C1043.5 81.8765 1037.33 81.8765 1031.04 81.8765ZM1052.59 91.4715C1055.15 91.0995 1056.46 89.9585 1056.13 87.5185C1055.97 86.3485 1055.26 85.4905 1053.94 86.0155C1051 87.1855 1052.79 89.4505 1052.59 91.4715Z" fill="#FA1239"/>
<path opacity="0.13" d="M93.9752 150.636C96.6002 149.885 98.7911 150.318 99.4652 153.363C100.097 156.216 98.7576 158.616 95.6069 159.595C94.2436 160.019 93.8857 160.546 93.6458 161.846C92.8568 166.13 90.5266 168.111 86.1387 168.533C85.1932 168.624 84.2396 168.641 83.288 168.657C74.5334 168.811 72.3283 167.075 70.723 158.628C70.1211 155.459 69.7887 152.26 69.9097 149.018C69.992 146.829 70.9355 145.883 73.2545 145.934C78.3266 146.045 83.4018 145.966 88.477 145.965C93.2808 145.967 93.2808 145.967 93.9752 150.636ZM72.3517 148.208C71.9226 152.61 72.5987 156.568 73.2138 160.572C73.7638 164.154 75.7728 165.805 79.1633 166.335C81.7884 166.745 84.4297 166.701 87.0344 166.381C89.4764 166.082 90.974 164.577 91.4111 162.125C92.2377 157.49 91.2088 152.925 91.2556 148.207C84.8181 148.208 78.7404 148.208 72.3517 148.208ZM93.9833 158.019C96.7944 157.264 98.0378 156.01 97.4664 153.585C97.2153 152.518 96.4528 151.933 95.3405 152.389C92.4156 153.588 94.1927 155.826 93.9833 158.019Z" fill="#FA1239"/>
<path opacity="0.13" d="M1233.66 143.636C1236.28 142.885 1238.47 143.318 1239.15 146.363C1239.78 149.216 1238.44 151.616 1235.29 152.595C1233.93 153.019 1233.57 153.546 1233.33 154.846C1232.54 159.13 1230.21 161.111 1225.82 161.533C1224.88 161.624 1223.92 161.641 1222.97 161.657C1214.22 161.811 1212.01 160.075 1210.41 151.628C1209.8 148.459 1209.47 145.26 1209.59 142.018C1209.68 139.829 1210.62 138.883 1212.94 138.934C1218.01 139.045 1223.09 138.966 1228.16 138.965C1232.96 138.967 1232.96 138.967 1233.66 143.636ZM1212.04 141.208C1211.61 145.61 1212.28 149.568 1212.9 153.572C1213.45 157.154 1215.46 158.805 1218.85 159.335C1221.47 159.745 1224.11 159.701 1226.72 159.381C1229.16 159.082 1230.66 157.577 1231.09 155.125C1231.92 150.49 1230.89 145.925 1230.94 141.207C1224.5 141.208 1218.42 141.208 1212.04 141.208ZM1233.67 151.019C1236.48 150.264 1237.72 149.01 1237.15 146.585C1236.9 145.518 1236.14 144.933 1235.02 145.389C1232.1 146.588 1233.88 148.826 1233.67 151.019Z" fill="#FA1239"/>
<path opacity="0.13" d="M206.557 12.8825C206.959 16.1365 205.173 16.4545 203.488 16.7975C201.559 17.1905 200.34 16.3985 200.212 14.4425C199.565 4.51449 196.521 -4.95151 194.462 -14.6055C193.955 -16.9845 194.492 -18.4265 197.133 -18.8255C199.509 -19.1845 200.506 -18.2355 201.061 -15.9555C203.254 -6.95252 205.166 2.09349 206.314 11.2875C206.418 12.1135 206.566 12.9345 206.557 12.8825ZM197.822 -15.7435C196.572 -13.4045 197.839 -11.0635 198.294 -8.76753C198.815 -6.12953 199.827 -3.58851 200.414 -0.959515C200.977 1.56549 201.307 4.14347 201.671 6.70647C202.027 9.20647 201.98 11.8025 203.557 13.9875C203.206 3.83048 201.023 -5.98451 197.822 -15.7435Z" fill="#FA1239"/>
<path opacity="0.13" d="M1346.24 5.8825C1346.64 9.1365 1344.86 9.45447 1343.17 9.79747C1341.24 10.1905 1340.02 9.39849 1339.9 7.44249C1339.25 -2.48551 1336.2 -11.9515 1334.15 -21.6055C1333.64 -23.9845 1334.18 -25.4265 1336.82 -25.8255C1339.19 -26.1845 1340.19 -25.2355 1340.74 -22.9555C1342.94 -13.9525 1344.85 -4.90651 1346 4.28749C1346.1 5.11349 1346.25 5.9345 1346.24 5.8825ZM1337.51 -22.7435C1336.26 -20.4045 1337.52 -18.0635 1337.98 -15.7675C1338.5 -13.1295 1339.51 -10.5885 1340.1 -7.95951C1340.66 -5.43451 1340.99 -2.85653 1341.35 -0.29353C1341.71 2.20647 1341.66 4.80248 1343.24 6.98748C1342.89 -3.16952 1340.71 -12.9845 1337.51 -22.7435Z" fill="#FA1239"/>
<path opacity="0.13" d="M373.456 69.0635C373.157 67.0345 374.595 66.5495 376.112 66.2535C377.745 65.9355 379.437 65.8595 379.932 67.9355C381.355 73.9085 382.967 79.8555 383.978 85.8985C384.628 89.7815 384.872 93.7505 385.74 97.6105C386.35 100.321 385.138 101.477 382.585 101.839C380.084 102.194 379.394 100.714 379.285 98.7295C378.77 89.3075 375.711 80.3745 373.856 71.2105C373.712 70.4975 373.588 69.7795 373.456 69.0635ZM377.363 68.7205C376.361 70.3715 381.413 97.2535 383.227 99.7305C382.397 88.8195 380.204 78.9805 377.363 68.7205Z" fill="#FA1239"/>
<path opacity="0.13" d="M1134.13 119.322C1134.36 121.705 1132.55 121.983 1130.88 122.305C1129.16 122.636 1127.84 122.05 1127.72 120.184C1127.05 109.943 1123.77 100.205 1121.82 90.2125C1121.4 88.0595 1122.36 87.0875 1124.34 86.7435C1126.15 86.4315 1127.73 86.4705 1128.3 88.6975C1130.82 98.5875 1132.7 108.596 1134.06 118.7C1134.09 118.907 1134.11 119.115 1134.13 119.322ZM1130.46 119.578C1131.95 116.585 1127.76 93.8005 1124.82 89.7885C1126.26 99.7955 1129.61 109.465 1130.46 119.578Z" fill="#FA1239"/>
<path opacity="0.13" d="M81.7079 142.737C81.2046 139.456 79.1591 138.939 76.6408 138.876C74.4103 138.82 72.2874 137.952 71.6886 135.684C71.0634 133.315 72.2061 131.345 74.579 130.438C76.0562 129.873 75.7278 128.61 76.1315 127.622C77.1481 125.134 78.3712 122.751 81.4405 122.422C84.4793 122.095 86.8014 123.355 88.0854 126.169C88.4128 126.886 88.6883 127.386 89.6552 127.354C92.4185 127.26 93.6812 128.797 93.8255 131.372C94.0279 134.99 92.7865 136.964 89.7558 137.908C84.8728 139.427 84.8728 139.427 81.7079 142.737ZM82.7266 139.107C84.5739 137.116 87.0759 136.689 89.5311 136.093C91.596 135.592 91.8197 133.888 91.8908 132.16C91.9345 131.093 91.9294 129.948 90.807 129.439C88.8835 128.567 88.8235 130.831 87.7133 131.362C87.5466 131.441 87.3077 131.373 87.1033 131.382C86.0745 130.737 86.4191 129.728 86.4425 128.832C86.4954 126.856 85.7562 125.355 83.7961 124.694C82.2071 124.158 80.559 124.154 79.4976 125.66C78.3874 127.235 76.9082 128.881 78.6426 130.941C79.1489 131.542 79.5698 132.152 78.8907 132.836C78.1872 133.544 77.5202 132.995 76.9153 132.612C75.736 131.866 74.6898 131.961 73.9161 133.126C73.3112 134.037 73.0418 135.07 73.9375 135.98C74.881 136.939 76.1345 137.212 77.4287 137.168C79.4295 137.099 81.164 137.686 82.7266 139.107Z" fill="#FA1239"/>
<path opacity="0.13" d="M1221.39 135.737C1220.89 132.456 1218.84 131.939 1216.32 131.876C1214.09 131.82 1211.97 130.952 1211.37 128.684C1210.75 126.315 1211.89 124.345 1214.26 123.438C1215.74 122.873 1215.41 121.61 1215.81 120.622C1216.83 118.134 1218.05 115.751 1221.12 115.422C1224.16 115.095 1226.48 116.355 1227.77 119.169C1228.1 119.886 1228.37 120.386 1229.34 120.354C1232.1 120.26 1233.36 121.797 1233.51 124.372C1233.71 127.99 1232.47 129.964 1229.44 130.908C1224.56 132.427 1224.56 132.427 1221.39 135.737ZM1222.41 132.107C1224.26 130.116 1226.76 129.689 1229.21 129.093C1231.28 128.592 1231.5 126.888 1231.57 125.16C1231.62 124.093 1231.61 122.948 1230.49 122.439C1228.57 121.567 1228.51 123.831 1227.4 124.362C1227.23 124.441 1226.99 124.373 1226.79 124.382C1225.76 123.737 1226.1 122.728 1226.13 121.832C1226.18 119.856 1225.44 118.355 1223.48 117.694C1221.89 117.158 1220.24 117.154 1219.18 118.66C1218.07 120.235 1216.59 121.881 1218.33 123.941C1218.83 124.542 1219.25 125.152 1218.57 125.836C1217.87 126.544 1217.2 125.995 1216.6 125.612C1215.42 124.866 1214.37 124.961 1213.6 126.126C1212.99 127.037 1212.73 128.07 1213.62 128.98C1214.56 129.939 1215.82 130.212 1217.11 130.168C1219.11 130.099 1220.85 130.686 1222.41 132.107Z" fill="#FA1239"/>
<path opacity="0.13" d="M1040.71 76.3385C1039.8 72.9855 1037.66 72.5985 1035.19 72.4995C1032.95 72.4105 1030.84 71.5535 1030.27 69.2665C1029.67 66.8885 1030.84 64.9445 1033.21 64.0425C1034.55 63.5345 1034.32 62.4195 1034.66 61.5055C1035.62 58.8655 1036.87 56.3875 1040.08 56.0445C1043.12 55.7195 1045.43 57.0095 1046.69 59.8395C1047.02 60.5805 1047.35 61.0105 1048.29 60.9755C1050.88 60.8815 1052.17 62.3035 1052.4 64.7315C1052.74 68.2825 1051.52 70.6575 1048.59 71.4195C1045.52 72.2185 1042.28 72.5205 1040.71 76.3385ZM1045.8 65.0695C1044.57 64.2955 1045.05 63.1635 1045.04 62.1825C1045.01 60.3165 1044.22 58.9455 1042.42 58.3295C1040.71 57.7415 1039 57.8255 1037.91 59.4935C1036.91 61.0245 1035.54 62.6145 1037.2 64.5355C1037.72 65.1275 1038.16 65.7335 1037.51 66.4335C1036.83 67.1655 1036.14 66.6535 1035.54 66.2575C1034.37 65.4945 1033.32 65.5635 1032.53 66.7165C1031.91 67.6165 1031.63 68.6495 1032.5 69.5755C1033.33 70.4655 1034.47 70.7995 1035.66 70.7745C1037.82 70.7285 1039.79 71.1625 1041.32 72.8035C1043.22 70.7575 1045.49 70.2815 1047.78 69.8305C1049.84 69.4255 1050.39 67.9355 1050.47 66.1355C1050.51 64.9905 1050.67 63.7125 1049.43 63.0835C1047.37 62.0435 1047.45 64.8245 1045.8 65.0695Z" fill="#FA1239"/>
<path opacity="0.13" d="M294.254 30.1235C293.435 27.0235 291.485 26.4895 289.083 26.4035C286.74 26.3205 284.487 25.5275 283.896 23.0865C283.324 20.7185 284.511 18.7865 286.904 17.8955C288.099 17.4505 287.961 16.4705 288.236 15.6295C289.108 12.9525 290.326 10.4285 293.463 9.95649C296.609 9.48349 299.052 10.7925 300.349 13.7695C300.687 14.5435 301.085 14.8665 301.991 14.8475C304.576 14.7935 305.89 16.2345 306.033 18.6665C306.203 21.5305 305.733 24.3345 302.476 25.2115C299.307 26.0655 296.037 26.4715 294.254 30.1235ZM299.434 18.9465C298.214 18.1725 298.691 17.0405 298.678 16.0585C298.652 14.1935 297.862 12.8215 296.063 12.2055C294.347 11.6175 292.639 11.6955 291.552 13.3685C290.557 14.9005 289.178 16.4895 290.847 18.4105C291.363 19.0035 291.797 19.6095 291.152 20.3095C290.473 21.0455 289.786 20.5265 289.182 20.1335C288.016 19.3745 286.966 19.4375 286.17 20.5895C285.547 21.4895 285.272 22.5255 286.137 23.4495C286.971 24.3395 288.113 24.6785 289.299 24.6515C291.456 24.6005 293.431 25.0385 294.966 26.6765C296.856 24.6375 299.129 24.1585 301.421 23.7075C303.473 23.3035 304.03 21.8145 304.106 20.0135C304.153 18.8685 304.311 17.5875 303.071 16.9605C301.018 15.9205 301.084 18.6965 299.434 18.9465Z" fill="#FA1239"/>
<path opacity="0.13" d="M1433.94 23.1235C1433.12 20.0235 1431.17 19.4895 1428.77 19.4035C1426.42 19.3205 1424.17 18.5275 1423.58 16.0865C1423.01 13.7185 1424.2 11.7865 1426.59 10.8955C1427.78 10.4505 1427.64 9.47049 1427.92 8.62949C1428.79 5.95249 1430.01 3.42849 1433.15 2.95649C1436.29 2.48349 1438.74 3.79251 1440.03 6.76951C1440.37 7.54351 1440.77 7.86651 1441.67 7.84751C1444.26 7.79351 1445.57 9.23451 1445.72 11.6665C1445.89 14.5305 1445.42 17.3345 1442.16 18.2115C1438.99 19.0655 1435.72 19.4715 1433.94 23.1235ZM1439.12 11.9465C1437.9 11.1725 1438.37 10.0405 1438.36 9.05851C1438.34 7.19351 1437.55 5.82151 1435.75 5.20551C1434.03 4.61751 1432.32 4.69551 1431.24 6.36851C1430.24 7.90051 1428.86 9.4895 1430.53 11.4105C1431.05 12.0035 1431.48 12.6095 1430.84 13.3095C1430.16 14.0455 1429.47 13.5265 1428.87 13.1335C1427.7 12.3745 1426.65 12.4375 1425.85 13.5895C1425.23 14.4895 1424.96 15.5255 1425.82 16.4495C1426.65 17.3395 1427.8 17.6785 1428.98 17.6515C1431.14 17.6005 1433.11 18.0385 1434.65 19.6765C1436.54 17.6375 1438.81 17.1585 1441.1 16.7075C1443.16 16.3035 1443.71 14.8145 1443.79 13.0135C1443.84 11.8685 1443.99 10.5875 1442.75 9.96049C1440.7 8.92049 1440.77 11.6965 1439.12 11.9465Z" fill="#FA1239"/>
<path opacity="0.13" d="M1268.52 164.497C1258.35 166.264 1248.27 168.013 1238.38 169.73C1237.18 171.436 1239.01 172.906 1238.1 174.816C1235.89 173.625 1236.15 171.629 1236.04 169.833C1235.93 168.148 1237.09 167.863 1238.48 167.629C1248.17 165.986 1257.86 164.276 1267.55 162.613C1269.46 162.285 1274.18 164.906 1274.67 166.778C1275.31 169.245 1275.6 171.801 1276.19 175.215C1272.27 172.78 1274.95 167.988 1271.27 166.239C1270.83 169.169 1272.73 171.741 1271.87 175.342C1269.13 171.836 1270.31 167.903 1268.52 164.497Z" fill="#FA1239"/>
<path opacity="0.13" d="M1083.91 155.353C1081.93 155.353 1080.15 155.37 1078.36 155.347C1077.16 155.331 1075.92 155.243 1075.88 153.637C1075.85 152.232 1076.55 151.041 1077.93 150.87C1082.46 150.312 1087 150.409 1091.45 151.434C1092.96 151.781 1092.6 152.955 1091.91 153.895C1090.93 155.245 1089.94 156.591 1088.85 157.859C1087.69 159.218 1086.32 160.839 1084.36 159.994C1082.1 159.022 1083.91 157.108 1083.91 155.353Z" fill="#FA1239"/>
<path opacity="0.13" d="M214.492 78.0215C214.579 77.4325 214.652 76.9385 214.724 76.4435C214.86 75.5015 214.996 74.4255 216.125 74.2515C217.533 74.0345 217.739 75.2985 218.128 76.2345C219.31 79.0735 220.485 81.9165 221.662 84.7585C218.957 85.7175 210.871 82.8025 209.821 80.5965C209.12 79.1245 209.667 78.1095 211.264 77.8855C212.265 77.7435 213.315 77.9575 214.492 78.0215Z" fill="#FA1239"/>
<path opacity="0.13" d="M1354.18 71.0215C1354.26 70.4325 1354.34 69.9385 1354.41 69.4435C1354.54 68.5015 1354.68 67.4255 1355.81 67.2515C1357.22 67.0345 1357.42 68.2985 1357.81 69.2345C1358.99 72.0735 1360.17 74.9165 1361.35 77.7585C1358.64 78.7175 1350.55 75.8025 1349.5 73.5965C1348.8 72.1245 1349.35 71.1095 1350.95 70.8855C1351.95 70.7435 1353 70.9575 1354.18 71.0215Z" fill="#FA1239"/>
<path opacity="0.13" d="M34.6405 3.0325C34.8428 1.9545 34.857 1.08549 35.1773 0.345493C35.7842 -1.05551 37.0561 -1.43649 37.7047 0.0245093C39.1525 3.28451 40.3145 6.6735 42.2248 9.8765C39.0213 10.5725 31.5336 7.91951 30.2393 5.93851C29.1576 4.28151 29.6395 3.13251 31.6474 2.86451C32.5553 2.74251 33.5079 2.9575 34.6405 3.0325Z" fill="#FA1239"/>
<path opacity="0.13" d="M1174.32 -3.9675C1174.53 -5.0455 1174.54 -5.91451 1174.86 -6.65451C1175.47 -8.05551 1176.74 -8.43649 1177.39 -6.97549C1178.84 -3.71549 1180 -0.326501 1181.91 2.8765C1178.7 3.5725 1171.22 0.919511 1169.92 -1.06149C1168.84 -2.71849 1169.32 -3.86749 1171.33 -4.13549C1172.24 -4.25749 1173.19 -4.0425 1174.32 -3.9675Z" fill="#FA1239"/>
<path opacity="0.13" d="M393.62 163.043C393.72 162.578 393.821 162.194 393.881 161.803C394.052 160.687 394.001 159.292 395.567 159.245C396.912 159.204 397.022 160.556 397.408 161.478C398.585 164.287 399.728 167.11 401.105 170.461C396.236 170.346 392.743 168.415 389.415 166.12C388.701 165.627 388.483 164.718 388.89 163.861C389.236 163.131 389.926 162.823 390.712 162.84C391.64 162.86 392.565 162.965 393.62 163.043Z" fill="#FA1239"/>
<path opacity="0.23" d="M318.056 -5.50251C318.923 -5.43451 319.144 -6.16852 319.613 -6.53052C320.531 -7.24052 321.529 -7.5665 322.53 -6.9075C323.628 -6.1835 323.411 -5.04952 322.921 -4.09952C321.823 -1.96952 320.617 0.106479 319.435 2.19348C318.941 3.06648 318.228 3.67749 317.134 3.50549C316.13 3.34749 315.824 2.5275 315.644 1.6965C315.115 -0.7405 314.549 -3.17451 314.15 -5.63251C313.972 -6.73051 313.893 -8.1485 315.347 -8.5065C317.148 -8.9495 317.308 -7.43052 317.644 -6.22852C317.72 -5.96052 317.925 -5.72751 318.056 -5.50251Z" fill="#FA1239"/>
<path opacity="0.13" d="M105.802 106.984C106.539 107.105 106.77 106.538 107.128 106.206C108.055 105.347 109.128 104.841 110.267 105.583C111.516 106.395 111.118 107.617 110.573 108.657C109.509 110.688 108.354 112.673 107.219 114.668C106.725 115.538 106.027 116.166 104.931 116.013C103.921 115.872 103.601 115.058 103.42 114.224C102.889 111.786 102.308 109.355 101.925 106.893C101.74 105.699 101.651 104.15 103.392 103.934C104.955 103.741 105.116 105.132 105.408 106.244C105.481 106.519 105.68 106.761 105.802 106.984Z" fill="#FA1239"/>
<path opacity="0.13" d="M1245.49 99.9845C1246.22 100.105 1246.45 99.5385 1246.81 99.2065C1247.74 98.3475 1248.81 97.8415 1249.95 98.5835C1251.2 99.3955 1250.8 100.617 1250.26 101.657C1249.19 103.688 1248.04 105.673 1246.9 107.668C1246.41 108.538 1245.71 109.166 1244.61 109.013C1243.6 108.872 1243.28 108.058 1243.1 107.224C1242.57 104.786 1241.99 102.355 1241.61 99.8935C1241.42 98.6995 1241.33 97.1505 1243.08 96.9345C1244.64 96.7415 1244.8 98.1325 1245.09 99.2445C1245.16 99.5195 1245.36 99.7615 1245.49 99.9845Z" fill="#FA1239"/>
<path opacity="0.13" d="M1064.51 40.8825C1065.23 40.2755 1065.74 39.7815 1066.31 39.3665C1067.16 38.7535 1068.13 38.6455 1068.97 39.2585C1069.88 39.9215 1069.76 40.9265 1069.37 41.8245C1068.34 44.2245 1067.17 46.5755 1065.55 48.6395C1064.25 50.2965 1062.7 50.0315 1062.09 48.0215C1061.43 45.8365 1060.98 43.5795 1060.61 41.3265C1060.39 39.9545 1059.87 38.0595 1061.81 37.6185C1063.98 37.1245 1063.58 39.4485 1064.51 40.8825Z" fill="#FA1239"/>
<path opacity="0.13" d="M1305.84 174.265C1304.33 175.015 1303.52 174.478 1303.22 172.892C1302.7 170.24 1302.18 167.589 1301.62 164.948C1301.17 162.886 1302.35 162.089 1304.11 161.76C1305.89 161.428 1307.58 161.396 1308.09 163.641C1308.89 167.161 1309.65 170.689 1310.43 174.237C1308.01 174.401 1307.99 174.404 1307.03 170.429C1306.57 168.538 1306.16 166.635 1305.26 164.767C1303.63 167.976 1306.15 171.051 1305.84 174.265Z" fill="#FA1239"/>
<path opacity="0.13" d="M1041.7 165.845C1041.72 166.868 1041.29 167.457 1040.68 167.894C1037.98 169.845 1035.27 171.803 1032.52 173.684C1031.5 174.377 1030.57 174.063 1029.79 173.092C1029.07 172.202 1029.16 171.54 1029.86 170.648C1032.08 167.843 1034.97 165.769 1037.67 163.478C1038.44 162.816 1039.43 162.772 1040.29 163.418C1041.16 164.072 1041.64 164.975 1041.7 165.845Z" fill="#FA1239"/>
<path opacity="0.13" d="M16.5844 150.795C17.6356 149.358 16.6728 146.395 18.9024 146.813C21.2519 147.253 19.8855 149.724 19.7055 151.338C19.5449 152.777 19.2023 154.198 18.9034 155.619C18.7133 156.524 18.6086 157.57 17.4607 157.809C16.3353 158.043 15.6968 157.252 15.2322 156.417C14.3091 154.758 13.1714 153.293 11.6932 152.074C10.9531 151.464 10.1906 150.727 10.7396 149.691C11.3628 148.514 12.5797 148.718 13.5364 149.066C14.5815 149.447 15.5016 150.162 16.5844 150.795Z" fill="#FA1239"/>
<path opacity="0.13" d="M1156.27 143.795C1157.32 142.358 1156.36 139.395 1158.59 139.813C1160.94 140.253 1159.57 142.724 1159.39 144.338C1159.23 145.777 1158.89 147.198 1158.59 148.619C1158.4 149.524 1158.29 150.57 1157.14 150.809C1156.02 151.043 1155.38 150.252 1154.92 149.417C1153.99 147.758 1152.85 146.293 1151.38 145.074C1150.64 144.464 1149.87 143.727 1150.42 142.691C1151.05 141.514 1152.26 141.718 1153.22 142.066C1154.26 142.447 1155.18 143.162 1156.27 143.795Z" fill="#FA1239"/>
<path opacity="0.13" d="M407.998 123.467C408.215 122.972 408.297 122.783 408.379 122.594C408.91 121.381 408.295 118.987 410.263 119.265C412.398 119.566 411.462 121.739 411.271 123.163C411.024 125.01 410.597 126.834 410.197 128.658C410.043 129.364 409.809 130.103 408.949 130.302C407.963 130.529 407.296 129.976 406.863 129.235C405.805 127.419 404.594 125.745 402.935 124.406C402.255 123.857 401.712 123.158 402.122 122.25C402.615 121.157 403.647 121.374 404.592 121.443C405.951 121.541 406.727 122.668 407.998 123.467Z" fill="#FA1239"/>
<path opacity="0.13" d="M228.83 38.3615C229.005 38.0535 229.06 37.9655 229.106 37.8715C229.723 36.5945 229.034 33.9705 231.086 34.2885C233.339 34.6375 232.215 36.9585 232.013 38.4825C231.794 40.1255 231.425 41.7505 231.079 43.3745C230.907 44.1815 230.738 45.0775 229.74 45.3005C228.6 45.5545 227.96 44.7895 227.49 43.9585C226.555 42.3095 225.445 40.8205 223.958 39.6075C223.11 38.9155 222.289 38.0305 223.088 36.9665C223.806 36.0075 225.055 36.2285 226.024 36.6235C226.965 37.0045 227.777 37.6915 228.83 38.3615Z" fill="#FA1239"/>
<path opacity="0.13" d="M1368.51 31.3615C1368.69 31.0535 1368.74 30.9655 1368.79 30.8715C1369.41 29.5945 1368.72 26.9705 1370.77 27.2885C1373.02 27.6375 1371.9 29.9585 1371.7 31.4825C1371.48 33.1255 1371.11 34.7505 1370.76 36.3745C1370.59 37.1815 1370.42 38.0775 1369.42 38.3005C1368.28 38.5545 1367.64 37.7895 1367.17 36.9585C1366.24 35.3095 1365.13 33.8205 1363.64 32.6075C1362.79 31.9155 1361.97 31.0305 1362.77 29.9665C1363.49 29.0075 1364.74 29.2285 1365.71 29.6235C1366.65 30.0045 1367.46 30.6915 1368.51 31.3615Z" fill="#FA1239"/>
<path opacity="0.13" d="M274.543 64.9855C276.043 63.7165 277.259 62.6105 278.562 61.6145C279.268 61.0745 280.147 60.8815 280.781 61.7715C281.311 62.5165 280.878 63.1465 280.329 63.6905C278.769 65.2345 277.264 66.8375 275.623 68.2935C273.674 70.0225 272.342 69.5945 271.534 67.1955C271.007 65.6305 270.216 64.1425 269.802 62.5545C269.466 61.2625 269.31 59.6495 271.095 59.2085C272.992 58.7405 273.704 60.1535 274.067 61.6635C274.298 62.6325 274.358 63.6425 274.543 64.9855Z" fill="#FA1239"/>
<path opacity="0.13" d="M1414.23 57.9855C1415.73 56.7165 1416.94 55.6105 1418.25 54.6145C1418.95 54.0745 1419.83 53.8815 1420.46 54.7715C1420.99 55.5165 1420.56 56.1465 1420.01 56.6905C1418.45 58.2345 1416.95 59.8375 1415.31 61.2935C1413.36 63.0225 1412.03 62.5945 1411.22 60.1955C1410.69 58.6305 1409.9 57.1425 1409.49 55.5545C1409.15 54.2625 1408.99 52.6495 1410.78 52.2085C1412.68 51.7405 1413.39 53.1535 1413.75 54.6635C1413.98 55.6325 1414.04 56.6425 1414.23 57.9855Z" fill="#FA1239"/>
<path opacity="0.13" d="M392.471 75.2115C388.65 74.4185 386.287 72.1635 383.814 70.2255C383.013 69.5985 383.593 68.6665 384.712 68.5635C386.241 68.4225 391.914 72.9335 392.471 75.2115Z" fill="#FA1239"/>
<path opacity="0.13" d="M1312.59 164.064C1313.64 164.041 1320.23 168.242 1320.44 168.955C1320.53 169.301 1320.51 169.808 1320.31 170.081C1319.98 170.533 1319.38 170.577 1318.87 170.356C1316.34 169.263 1314.23 167.529 1312.02 165.944C1311.58 165.624 1311.43 165.036 1311.81 164.565C1312.04 164.279 1312.46 164.142 1312.59 164.064Z" fill="#FA1239"/>
<path opacity="0.13" d="M1.08138 101.484C0.827214 102.634 -0.0857514 102.714 -0.841135 102.266C-3.08898 100.931 -5.26059 99.4695 -7.42812 98.0095C-7.86732 97.7135 -8.05947 97.1795 -7.75244 96.6325C-7.45659 96.1045 -6.90149 95.8815 -6.41349 96.0965C-3.7061 97.2875 -1.38708 99.0745 0.908549 100.884C1.03767 100.985 1.02241 101.263 1.08138 101.484Z" fill="#FA1239"/>
<path opacity="0.13" d="M1140.76 94.4845C1140.51 95.6345 1139.6 95.7145 1138.84 95.2665C1136.59 93.9315 1134.42 92.4695 1132.25 91.0095C1131.82 90.7135 1131.62 90.1795 1131.93 89.6325C1132.23 89.1045 1132.78 88.8815 1133.27 89.0965C1135.98 90.2875 1138.3 92.0745 1140.59 93.8845C1140.72 93.9855 1140.71 94.2635 1140.76 94.4845Z" fill="#FA1239"/>
<path opacity="0.13" d="M371.991 49.4795C374.498 51.4565 375.764 56.4995 374.469 59.3405C372.152 56.9765 370.783 51.5265 371.991 49.4795Z" fill="#FA1239"/>
<path opacity="0.13" d="M158.123 167.148C155.9 166.596 153.792 165.952 151.85 164.884C151.101 164.473 150.258 163.972 150.818 162.976C151.371 161.992 152.244 162.477 153.037 162.771C154.904 163.464 156.781 164.126 158.652 164.806C159.459 165.099 160.363 165.418 159.949 166.51C159.629 167.357 158.786 167.23 158.123 167.148Z" fill="#FA1239"/>
<path opacity="0.13" d="M1297.81 160.148C1295.58 159.596 1293.48 158.952 1291.53 157.884C1290.78 157.473 1289.94 156.972 1290.5 155.976C1291.05 154.992 1291.93 155.477 1292.72 155.771C1294.59 156.464 1296.46 157.126 1298.34 157.806C1299.14 158.099 1300.05 158.418 1299.63 159.51C1299.31 160.357 1298.47 160.23 1297.81 160.148Z" fill="#FA1239"/>
<path opacity="0.13" d="M371.656 63.8375C369.755 64.8895 363.266 63.2705 362.416 61.5285C361.991 60.6565 362.36 60.1335 363.23 59.9215C364.096 59.7105 370.991 62.9505 371.656 63.8375Z" fill="#FA1239"/>
<path opacity="0.13" d="M1120.38 84.1105C1117.99 85.3865 1111.49 83.7395 1110.67 82.0105C1110.26 81.1295 1110.8 80.2505 1111.49 80.4835C1114.43 81.4665 1117.56 82.1225 1120.38 84.1105Z" fill="#FA1239"/>
<path opacity="0.13" d="M1122.68 80.5635C1120.53 76.9105 1119.73 73.6375 1119.34 69.6925C1122.5 71.4035 1123.97 76.3025 1122.68 80.5635Z" fill="#FA1239"/>
<path opacity="0.13" d="M160.411 151.981C162.918 153.991 164.173 159.036 162.865 161.848C160.546 159.442 159.193 154 160.411 151.981Z" fill="#FA1239"/>
<path opacity="0.13" d="M1300.09 144.981C1302.6 146.991 1303.86 152.036 1302.55 154.848C1300.23 152.442 1298.88 147 1300.09 144.981Z" fill="#FA1239"/>
<path opacity="0.13" d="M386.586 55.0125C387.218 57.5855 384.322 61.5345 381.303 62.2145C381.049 59.8925 383.86 56.0605 386.586 55.0125Z" fill="#FA1239"/>
<path opacity="0.13" d="M1128.67 82.8585C1130.16 79.4535 1132.08 77.2095 1134.46 75.1025C1135.75 77.7535 1132.72 82.0875 1128.67 82.8585Z" fill="#FA1239"/>
<path opacity="0.13" d="M169.31 164.641C169.997 161.8 172.545 158.586 174.861 157.457C175.793 159.991 172.604 164.308 169.31 164.641Z" fill="#FA1239"/>
<path opacity="0.13" d="M1308.99 157.641C1309.68 154.8 1312.23 151.586 1314.54 150.457C1315.48 152.991 1312.29 157.308 1308.99 157.641Z" fill="#FA1239"/>
<path opacity="0.13" d="M363.957 79.5365C362.767 79.2755 362.581 78.4125 363.334 77.5505C364.832 75.8365 366.48 74.2485 368.091 72.6325C368.477 72.2445 369.044 72.0685 369.511 72.4225C369.791 72.6345 370.013 73.0825 370.031 73.4355C370.085 74.5045 365.145 79.5225 363.957 79.5365Z" fill="#FA1239"/>
<path opacity="0.13" d="M1118.32 93.6085C1118.36 94.8975 1113.5 100.018 1112.43 100.006C1112.07 100.002 1111.61 99.7805 1111.39 99.5065C1111.02 99.0565 1111.18 98.4825 1111.55 98.0925C1113.11 96.4295 1114.7 94.7905 1116.31 93.1675C1116.68 92.7855 1117.22 92.5745 1117.73 92.8925C1118.03 93.0875 1118.22 93.4745 1118.32 93.6085Z" fill="#FA1239"/>
<path opacity="0.13" d="M90.5955 15.9145C90.5315 17.3935 89.7415 18.1465 88.3995 18.1285C86.9213 18.1085 86.0419 17.2965 86.1242 15.7645C86.1933 14.4725 86.8704 13.5215 88.244 13.5465C89.7466 13.5745 90.3515 14.6845 90.5955 15.9145Z" fill="#FA1239"/>
<path opacity="0.13" d="M1230.28 8.91448C1230.21 10.3935 1229.42 11.1465 1228.08 11.1285C1226.6 11.1085 1225.72 10.2965 1225.81 8.76449C1225.88 7.47249 1226.55 6.52147 1227.93 6.54647C1229.43 6.57447 1230.03 7.68448 1230.28 8.91448Z" fill="#FA1239"/>
<path opacity="0.13" d="M268.226 93.1515C266.748 93.0215 265.869 92.3015 265.949 90.7685C266.016 89.4765 266.691 88.5185 268.064 88.5475C269.551 88.5785 270.304 89.6445 270.382 91.0075C270.46 92.3845 269.573 93.0425 268.226 93.1515Z" fill="#FA1239"/>
<path opacity="0.13" d="M1407.91 86.1515C1406.43 86.0215 1405.55 85.3015 1405.63 83.7685C1405.7 82.4765 1406.37 81.5185 1407.75 81.5475C1409.23 81.5785 1409.99 82.6445 1410.07 84.0075C1410.14 85.3845 1409.26 86.0425 1407.91 86.1515Z" fill="#FA1239"/>
<path opacity="0.13" d="M1128.08 151.516C1126.74 151.501 1126.07 150.744 1126.12 149.393C1126.17 148.217 1126.44 147.017 1127.91 146.934C1129.43 146.848 1130.19 147.817 1130.19 149.253C1130.19 150.525 1129.58 151.4 1128.08 151.516Z" fill="#FA1239"/>
<path opacity="0.13" d="M202.745 43.4875C202.727 44.8715 202.272 45.8485 200.86 45.9865C199.466 46.1235 198.659 45.4215 198.671 44.0365C198.681 42.7515 198.937 41.4575 200.616 41.4325C201.986 41.4125 202.614 42.3295 202.745 43.4875Z" fill="#FA1239"/>
<path opacity="0.13" d="M1342.43 36.4875C1342.41 37.8715 1341.95 38.8485 1340.54 38.9865C1339.15 39.1235 1338.34 38.4215 1338.35 37.0365C1338.36 35.7515 1338.62 34.4575 1340.3 34.4325C1341.67 34.4125 1342.3 35.3295 1342.43 36.4875Z" fill="#FA1239"/>
<path opacity="0.13" d="M379.819 126.398C381.197 126.569 381.902 127.352 381.918 128.653C381.935 130.085 381.266 131.042 379.693 130.995C378.222 130.951 377.75 129.976 377.861 128.687C377.963 127.49 378.361 126.472 379.819 126.398Z" fill="#FA1239"/>
<path opacity="0.13" d="M64.6745 107.247C64.5688 108.602 63.7524 109.355 62.4531 109.387C61.1192 109.421 60.6434 108.49 60.7756 107.309C60.924 105.986 61.7668 105.271 63.1139 105.344C64.2607 105.406 64.7182 106.166 64.6745 107.247Z" fill="#FA1239"/>
<path opacity="0.13" d="M1204.36 100.247C1204.25 101.602 1203.44 102.355 1202.14 102.387C1200.8 102.421 1200.33 101.49 1200.46 100.309C1200.61 98.9855 1201.45 98.2705 1202.8 98.3435C1203.94 98.4055 1204.4 99.1655 1204.36 100.247Z" fill="#FA1239"/>
<path opacity="0.13" d="M387.676 154.569C387.567 155.729 387.047 156.534 385.768 156.608C384.566 156.678 384.01 155.982 384.061 154.901C384.114 153.778 384.649 152.894 385.935 152.819C387.143 152.749 387.554 153.54 387.676 154.569Z" fill="#FA1239"/>
<path opacity="0.13" d="M206.654 67.8115C207.9 67.7805 208.442 68.4805 208.458 69.5285C208.476 70.6895 207.901 71.5055 206.622 71.6075C205.425 71.7035 204.84 71.0285 204.871 69.9455C204.905 68.8285 205.431 67.9745 206.654 67.8115Z" fill="#FA1239"/>
<path opacity="0.13" d="M1346.34 60.8115C1347.58 60.7805 1348.12 61.4805 1348.14 62.5285C1348.16 63.6895 1347.58 64.5055 1346.31 64.6075C1345.11 64.7035 1344.52 64.0285 1344.55 62.9455C1344.59 61.8285 1345.11 60.9745 1346.34 60.8115Z" fill="#FA1239"/>
<path opacity="0.13" d="M326.32 30.8625C326.054 32.0065 325.483 32.7105 324.392 32.7685C323.345 32.8235 322.822 32.1555 322.873 31.2115C322.936 30.0535 323.561 29.1945 324.85 29.2735C325.822 29.3325 326.241 30.0685 326.32 30.8625Z" fill="#FA1239"/>
<path opacity="0.13" d="M112.424 141.737C113.413 141.832 114.055 142.363 114.034 143.312C114.006 144.503 113.264 145.264 112.038 145.268C111.012 145.271 110.551 144.545 110.65 143.589C110.756 142.563 111.326 141.878 112.424 141.737Z" fill="#FA1239"/>
<path opacity="0.13" d="M1252.11 134.737C1253.1 134.832 1253.74 135.363 1253.72 136.312C1253.69 137.503 1252.95 138.264 1251.72 138.268C1250.7 138.271 1250.23 137.545 1250.33 136.589C1250.44 135.563 1251.01 134.878 1252.11 134.737Z" fill="#FA1239"/>
<path opacity="0.13" d="M1072.69 77.0075C1072.39 78.1685 1071.8 78.8685 1070.71 78.8955C1069.67 78.9215 1069.16 78.2455 1069.24 77.2945C1069.33 76.1355 1069.96 75.2945 1071.25 75.4055C1072.23 75.4895 1072.61 76.2455 1072.69 77.0075Z" fill="#FA1239"/>
<path opacity="0.13" d="M1111.72 157.388C1112.82 157.497 1113.42 158.093 1113.47 159.184C1113.52 160.308 1112.95 160.979 1111.83 161.008C1110.84 161.034 1110.32 160.397 1110.27 159.435C1110.23 158.406 1110.56 157.613 1111.72 157.388Z" fill="#FA1239"/>
<path opacity="0.13" d="M183.488 45.7575C183.394 46.8705 182.773 47.4615 181.641 47.3635C180.61 47.2735 180.273 46.5425 180.28 45.6175C180.288 44.5465 180.754 43.7295 181.915 43.8015C183.015 43.8695 183.493 44.6865 183.488 45.7575Z" fill="#FA1239"/>
<path opacity="0.13" d="M1323.17 38.7575C1323.08 39.8705 1322.46 40.4615 1321.32 40.3635C1320.29 40.2735 1319.96 39.5425 1319.96 38.6175C1319.97 37.5465 1320.44 36.7295 1321.6 36.8015C1322.7 36.8695 1323.18 37.6865 1323.17 38.7575Z" fill="#FA1239"/>
<path opacity="0.13" d="M361.062 128.758C362.148 128.977 362.702 129.632 362.667 130.715C362.631 131.837 362 132.44 360.866 132.368C359.836 132.302 359.469 131.591 359.465 130.658C359.461 129.591 359.908 128.883 361.062 128.758Z" fill="#FA1239"/>
<path opacity="0.13" d="M1124.32 165.233C1123.24 165.198 1122.6 164.561 1122.57 163.502C1122.54 162.52 1123.21 162.005 1124.19 162.001C1125.29 161.997 1126.04 162.551 1126.01 163.668C1125.98 164.589 1125.36 165.152 1124.32 165.233Z" fill="#FA1239"/>
<path opacity="0.13" d="M196.055 49.9905C195.9 50.9035 195.424 51.5395 194.436 51.5905C193.287 51.6495 192.642 50.9715 192.572 49.9275C192.508 48.9575 193.152 48.4025 194.137 48.3745C195.239 48.3435 195.907 48.8875 196.055 49.9905Z" fill="#FA1239"/>
<path opacity="0.13" d="M1335.74 42.9905C1335.58 43.9035 1335.11 44.5395 1334.12 44.5905C1332.97 44.6495 1332.33 43.9715 1332.26 42.9275C1332.19 41.9575 1332.84 41.4025 1333.82 41.3745C1334.92 41.3435 1335.59 41.8875 1335.74 42.9905Z" fill="#FA1239"/>
<path opacity="0.13" d="M373.295 133.365C374.385 133.375 375.178 133.837 375.205 134.96C375.228 135.884 374.631 136.516 373.655 136.589C372.508 136.674 371.847 135.997 371.758 134.958C371.674 133.993 372.314 133.464 373.295 133.365Z" fill="#FA1239"/>
<path opacity="0.13" d="M99.5517 9.04248C100.691 9.20648 101.053 9.96348 100.916 10.9995C100.777 12.0505 100.09 12.6745 99.0321 12.6205C97.8538 12.5605 97.4939 11.7025 97.6342 10.6775C97.7745 9.64749 98.414 9.06148 99.5517 9.04248Z" fill="#FA1239"/>
<path opacity="0.13" d="M1239.23 2.04248C1240.37 2.20648 1240.74 2.96348 1240.6 3.99948C1240.46 5.05048 1239.77 5.67448 1238.72 5.62048C1237.54 5.56048 1237.18 4.70249 1237.32 3.67749C1237.46 2.64749 1238.1 2.06148 1239.23 2.04248Z" fill="#FA1239"/>
<path opacity="0.13" d="M280.776 85.7465C280.69 86.8905 280.074 87.6415 278.847 87.6215C277.86 87.6055 277.404 86.9074 277.442 85.9734C277.488 84.7984 278.073 84.0305 279.348 84.0665C280.363 84.0965 280.745 84.7815 280.776 85.7465Z" fill="#FA1239"/>
<path opacity="0.13" d="M1420.46 78.7465C1420.37 79.8905 1419.76 80.6415 1418.53 80.6215C1417.54 80.6055 1417.09 79.9074 1417.13 78.9734C1417.17 77.7984 1417.76 77.0305 1419.03 77.0665C1420.05 77.0965 1420.43 77.7815 1420.46 78.7465Z" fill="#FA1239"/>
<path opacity="0.13" d="M1.62131 31.4815C-6.24769 31.8005 -12.855 27.6205 -20.1659 26.2135C-20.9883 27.4275 -21.8281 28.6675 -22.7807 30.0745C-24.5497 28.2295 -23.2464 26.9145 -23.1 25.4495C-23.3999 24.3615 -25.2522 24.5805 -25.3387 23.0565C-25.0103 22.0645 -24.2732 22.2775 -23.3785 22.5755C-15.784 25.1025 -8.37659 28.2315 -0.370341 29.4405C0.471459 29.5655 1.63249 29.6085 1.62131 31.4815Z" fill="#FA1239"/>
<path opacity="0.13" d="M1141.3 24.4815C1133.44 24.8005 1126.83 20.6205 1119.52 19.2135C1118.69 20.4275 1117.85 21.6675 1116.9 23.0745C1115.13 21.2295 1116.44 19.9145 1116.58 18.4495C1116.28 17.3615 1114.43 17.5805 1114.34 16.0565C1114.67 15.0645 1115.41 15.2775 1116.3 15.5755C1123.9 18.1025 1131.31 21.2315 1139.31 22.4405C1140.15 22.5655 1141.32 22.6085 1141.3 24.4815Z" fill="#FA1239"/>
<path opacity="0.13" d="M0.919898 24.4635C-8.27585 23.1505 -16.2943 20.1465 -25.0458 16.7865C-21.7924 15.8875 -0.638652 22.1225 0.919898 24.4635Z" fill="#FA1239"/>
<path opacity="0.13" d="M1140.6 17.4635C1131.41 16.1505 1123.39 13.1465 1114.64 9.7865C1117.89 8.8875 1139.04 15.1225 1140.6 17.4635Z" fill="#FA1239"/>
<path opacity="0.23" d="M393.09 3.2645C385.154 4.3725 378.506 0.0294944 371.226 -1.27451C369.767 -0.472506 370.677 2.35749 368.104 2.08649C366.921 0.613487 368.243 -0.698505 368.313 -2.08051C367.843 -3.12251 366.092 -2.9925 366.031 -5.1915C375.343 -2.7815 383.991 0.989496 393.09 3.2645Z" fill="#FA1239"/>
<path opacity="0.13" d="M181.504 105.797C177.574 106.599 173.91 105.857 170.412 104.541C166.859 103.204 163.249 102.124 159.727 101.171C158.173 102.028 159.083 104.855 156.504 104.588C155.36 103.118 156.591 101.802 156.75 100.498C156.265 99.3675 154.489 99.5185 154.46 97.3115C163.746 99.7205 172.393 103.493 181.504 105.797Z" fill="#FA1239"/>
<path opacity="0.13" d="M1321.19 98.7975C1317.26 99.5995 1313.59 98.8575 1310.1 97.5415C1306.54 96.2045 1302.93 95.1244 1299.41 94.1714C1297.86 95.0284 1298.77 97.8555 1296.19 97.5885C1295.04 96.1185 1296.27 94.8025 1296.43 93.4985C1295.95 92.3675 1294.17 92.5185 1294.14 90.3115C1303.43 92.7205 1312.08 96.4935 1321.19 98.7975Z" fill="#FA1239"/>
<path opacity="0.13" d="M180.206 99.0315C171.529 98.1695 163.55 95.0894 155.012 91.9474C157.588 90.8714 178.84 96.8885 180.206 99.0315Z" fill="#FA1239"/>
<path opacity="0.13" d="M1319.89 92.0315C1311.21 91.1695 1303.23 88.0894 1294.7 84.9474C1297.27 83.8714 1318.52 89.8885 1319.89 92.0315Z" fill="#FA1239"/>
<path opacity="0.13" d="M1083.37 95.5155C1085.26 103.638 1084.78 104.331 1077.17 105.121C1075.38 105.306 1073.58 105.337 1071.78 105.483C1067.81 105.804 1065.57 103.273 1066.47 99.4895C1066.64 98.7965 1066.98 98.3505 1067.67 98.2295C1072.85 97.3275 1078.03 96.4375 1083.37 95.5155ZM1081.93 97.8955C1077.25 98.7225 1072.84 99.4995 1068.58 100.253C1068.26 101.594 1068.51 102.451 1069.24 103.408C1073.79 103.373 1078.44 103.343 1082.96 101.818C1082.61 100.489 1082.33 99.4055 1081.93 97.8955Z" fill="#FA1239"/>
<path opacity="0.13" d="M335.1 75.0225C337.01 83.1055 336.512 83.8275 328.921 84.6205C327.135 84.8075 325.331 84.8335 323.539 84.9785C319.544 85.3005 317.353 82.8375 318.197 79.0145C318.389 78.1435 318.9 77.7915 319.685 77.6565C324.764 76.7855 329.842 75.9195 335.1 75.0225ZM333.651 77.4125C329.045 78.2215 324.571 79.0075 320.11 79.7905C320.23 81.5695 320.076 82.9905 322.204 82.9235C326.403 82.7915 330.594 82.6795 334.709 81.3475C334.367 80.0775 334.052 78.9025 333.651 77.4125Z" fill="#FA1239"/>
<path opacity="0.23" d="M155.688 -9.90952C156.061 -9.23352 156.208 -9.0665 156.25 -8.8765C157.735 -2.2075 157.05 -1.2185 150.178 -0.432495C147.659 -0.144495 145.118 -0.0465227 142.588 0.145477C138.788 0.433477 139.687 -2.65149 139.112 -4.61349C138.504 -6.68649 139.769 -7.3345 141.609 -7.6145C146.295 -8.3275 150.966 -9.13352 155.688 -9.90952ZM155.544 -3.64651C155.158 -4.95151 154.793 -6.18452 154.376 -7.59052C149.748 -6.77052 145.346 -5.99151 141.067 -5.23251C140.704 -2.63251 141.699 -1.9425 143.895 -2.0705C147.781 -2.2985 151.664 -2.41751 155.544 -3.64651Z" fill="#FA1239"/>
<path opacity="0.13" d="M102.681 44.7704C101.661 44.8154 101.249 44.0375 100.757 43.3815C100.196 42.6325 100.63 42.0755 101.101 41.4625C103.278 38.6255 106.193 36.5645 108.886 34.2735C109.777 33.5155 110.857 33.4985 111.751 34.3195C112.625 35.1205 113.202 36.1225 112.904 37.3605C112.592 38.6475 104.035 44.8094 102.681 44.7704Z" fill="#FA1239"/>
<path opacity="0.13" d="M1242.36 37.7704C1241.34 37.8154 1240.93 37.0375 1240.44 36.3815C1239.88 35.6325 1240.31 35.0755 1240.78 34.4625C1242.96 31.6255 1245.88 29.5645 1248.57 27.2735C1249.46 26.5155 1250.54 26.4985 1251.44 27.3195C1252.31 28.1205 1252.89 29.1225 1252.59 30.3605C1252.28 31.6475 1243.72 37.8094 1242.36 37.7704Z" fill="#FA1239"/>
<path opacity="0.13" d="M292.797 111.636C292.784 111.841 292.799 112.052 292.754 112.251C292.438 113.665 283.642 120.12 282.318 119.715C280.835 119.261 279.559 118.336 280.872 116.56C283.059 113.604 285.994 111.382 288.902 109.197C290.504 107.993 292.723 109.51 292.797 111.636Z" fill="#FA1239"/>
<path opacity="0.13" d="M1432.48 104.636C1432.47 104.841 1432.48 105.052 1432.44 105.251C1432.12 106.665 1423.32 113.12 1422 112.715C1420.52 112.261 1419.24 111.336 1420.56 109.56C1422.74 106.604 1425.68 104.382 1428.58 102.197C1430.19 100.993 1432.41 102.51 1432.48 104.636Z" fill="#FA1239"/>
</g>
<defs>
<clipPath id="clip0_3_41">
<rect width="1464" height="165" fill="white" transform="translate(-2)"/>
</clipPath>
</defs>
</svg>
